<svg height="460.21099853515625" viewBox="-1.503173828125 17.05828857421875 561.8390502929688 460.21099853515625" width="561.8390502929688" xmlns="http://www.w3.org/2000/svg" xmlns:xlink="http://www.w3.org/1999/xlink">
<defs>
<clipPath id="clip-0">
<path clip-rule="nonzero" d="M 0 17 L 566.855469 17 L 566.855469 478 L 0 478 Z M 0 17 "/>
</clipPath>
</defs>
<g clip-path="url(#clip-0)">
<path d="M 533.007812 467.632812 C 502.082031 457.511719 449.230469 447.296875 410.976562 447.296875 C 390.929688 447.296875 371.046875 448.925781 352.265625 452.054688 L 369.082031 443.859375 C 369.109375 443.847656 369.128906 443.839844 369.15625 443.828125 C 370.394531 443.339844 371.621094 442.839844 372.847656 442.328125 C 372.875 442.3125 372.902344 442.300781 372.929688 442.292969 C 374.167969 441.773438 375.394531 441.246094 376.621094 440.710938 C 376.640625 440.703125 376.667969 440.691406 376.6875 440.683594 C 377.914062 440.148438 379.132812 439.601562 380.351562 439.035156 C 380.378906 439.027344 380.40625 439.019531 380.433594 439 C 381.644531 438.445312 382.84375 437.882812 384.046875 437.300781 C 384.089844 437.28125 384.128906 437.265625 384.164062 437.246094 C 385.355469 436.683594 386.527344 436.097656 387.710938 435.507812 C 387.773438 435.472656 387.835938 435.4375 387.902344 435.40625 C 389.046875 434.824219 390.191406 434.246094 391.332031 433.644531 C 391.429688 433.597656 391.519531 433.542969 391.621094 433.488281 C 392.722656 432.90625 393.832031 432.324219 394.921875 431.722656 C 395.058594 431.644531 395.195312 431.570312 395.332031 431.496094 C 396.386719 430.914062 397.433594 430.332031 398.476562 429.734375 C 398.667969 429.621094 398.851562 429.515625 399.035156 429.414062 C 400.023438 428.84375 401.023438 428.269531 402.007812 427.675781 C 402.242188 427.539062 402.488281 427.386719 402.726562 427.25 C 403.652344 426.6875 404.582031 426.132812 405.5 425.558594 C 405.800781 425.375 406.101562 425.183594 406.402344 425.003906 C 407.253906 424.46875 408.109375 423.929688 408.964844 423.375 C 409.335938 423.136719 409.703125 422.894531 410.066406 422.65625 C 410.847656 422.148438 411.628906 421.648438 412.402344 421.128906 C 412.859375 420.828125 413.304688 420.511719 413.757812 420.210938 C 414.441406 419.746094 415.125 419.28125 415.804688 418.816406 C 416.359375 418.425781 416.914062 418.027344 417.46875 417.636719 C 418.042969 417.234375 418.605469 416.835938 419.167969 416.425781 C 419.871094 415.925781 420.5625 415.417969 421.253906 414.90625 C 421.671875 414.597656 422.089844 414.289062 422.507812 413.980469 C 423.617188 413.152344 424.71875 412.316406 425.820312 411.460938 C 425.863281 411.425781 425.890625 411.378906 425.9375 411.34375 C 467.929688 413.332031 517.527344 423.03125 550.097656 432.898438 L 524.027344 442.039062 Z M 283.433594 422.511719 C 253.617188 422.511719 224.839844 428.03125 200.09375 438.484375 C 181.683594 431.199219 164.304688 421.519531 148.351562 409.660156 C 157.035156 405.410156 166.195312 401.601562 175.738281 398.246094 C 179.636719 396.863281 183.601562 395.570312 187.621094 394.351562 C 190.296875 393.535156 193 392.75 195.71875 392.015625 C 196.554688 391.789062 197.390625 391.558594 198.238281 391.34375 C 199.046875 391.121094 199.855469 390.914062 200.667969 390.714844 C 201.210938 390.570312 201.765625 390.421875 202.320312 390.296875 L 202.332031 390.285156 C 211.042969 388.113281 219.976562 386.285156 229.0625 384.828125 C 229.761719 384.710938 230.46875 384.601562 231.179688 384.5 C 232.492188 384.292969 233.808594 384.09375 235.128906 383.917969 C 236.910156 383.65625 238.691406 383.417969 240.484375 383.203125 C 245.40625 382.574219 250.363281 382.054688 255.347656 381.65625 C 255.664062 381.628906 255.984375 381.601562 256.300781 381.574219 C 258.4375 381.410156 260.578125 381.253906 262.722656 381.136719 C 264.058594 381.046875 265.394531 380.972656 266.742188 380.917969 C 272.28125 380.644531 277.847656 380.507812 283.433594 380.507812 C 286.550781 380.507812 289.664062 380.554688 292.773438 380.636719 C 293.890625 380.664062 295.011719 380.699219 296.121094 380.746094 C 299.503906 380.863281 302.878906 381.039062 306.242188 381.253906 C 311.136719 381.582031 316.011719 382.011719 320.851562 382.546875 C 321.695312 382.636719 322.535156 382.730469 323.371094 382.828125 C 324.960938 383.007812 326.554688 383.210938 328.136719 383.417969 L 328.144531 383.417969 C 329.601562 383.613281 331.039062 383.8125 332.484375 384.019531 C 333.113281 384.101562 333.730469 384.203125 334.347656 384.300781 C 342.933594 385.574219 351.382812 387.195312 359.660156 389.121094 C 360.671875 389.351562 361.671875 389.585938 362.671875 389.832031 C 364.109375 390.179688 365.515625 390.53125 366.933594 390.90625 L 366.945312 390.90625 C 367.171875 390.960938 367.398438 391.015625 367.628906 391.078125 C 370.210938 391.75 372.777344 392.453125 375.320312 393.1875 C 379.480469 394.390625 383.582031 395.671875 387.617188 397.035156 C 388.390625 397.289062 389.164062 397.5625 389.929688 397.835938 L 389.9375 397.835938 C 390.738281 398.101562 391.53125 398.382812 392.320312 398.664062 C 399.253906 401.144531 405.980469 403.867188 412.464844 406.824219 C 414.503906 407.742188 416.515625 408.6875 418.503906 409.660156 C 418.421875 409.722656 418.332031 409.785156 418.25 409.839844 C 402.378906 421.617188 385.082031 431.234375 366.761719 438.484375 C 342.015625 428.03125 313.238281 422.511719 283.433594 422.511719 M 155.882812 447.296875 C 117.617188 447.296875 64.773438 457.511719 33.859375 467.632812 L 42.828125 442.039062 L 16.757812 432.898438 C 49.332031 423.03125 98.925781 413.332031 140.917969 411.34375 C 140.953125 411.378906 140.992188 411.425781 141.035156 411.460938 C 142.136719 412.324219 143.257812 413.171875 144.375 413.996094 C 144.804688 414.324219 145.230469 414.632812 145.660156 414.945312 C 146.347656 415.460938 147.039062 415.972656 147.742188 416.472656 C 148.3125 416.878906 148.886719 417.28125 149.460938 417.691406 C 150.035156 418.089844 150.585938 418.492188 151.160156 418.890625 C 151.851562 419.371094 152.558594 419.835938 153.261719 420.320312 C 153.707031 420.617188 154.152344 420.929688 154.605469 421.230469 C 155.453125 421.792969 156.308594 422.347656 157.164062 422.902344 C 157.472656 423.101562 157.78125 423.3125 158.089844 423.511719 C 159.066406 424.128906 160.039062 424.742188 161.019531 425.347656 C 161.21875 425.476562 161.410156 425.605469 161.609375 425.722656 C 162.675781 426.375 163.738281 427.015625 164.804688 427.652344 C 164.929688 427.722656 165.050781 427.804688 165.167969 427.878906 C 166.304688 428.539062 167.441406 429.203125 168.585938 429.851562 C 168.640625 429.886719 168.703125 429.921875 168.769531 429.960938 C 169.96875 430.644531 171.179688 431.316406 172.390625 431.96875 C 172.390625 431.96875 172.390625 431.980469 172.398438 431.980469 C 180.917969 436.617188 189.726562 440.71875 198.773438 444.257812 L 214.21875 451.988281 C 195.546875 448.894531 175.789062 447.296875 155.882812 447.296875 M 131.925781 394.214844 C 128.839844 390.558594 126.628906 386.738281 125.066406 383.367188 C 123.703125 380.417969 122.828125 377.808594 122.300781 375.925781 C 122.128906 375.34375 122 374.824219 121.890625 374.386719 C 125.921875 374.152344 129.769531 374.226562 133.414062 374.617188 C 134.960938 374.78125 136.460938 374.996094 137.925781 375.28125 C 139.964844 375.660156 141.9375 376.152344 143.839844 376.753906 C 144.3125 376.898438 144.792969 377.050781 145.257812 377.21875 C 152.726562 379.808594 159.117188 384.09375 164.394531 390.050781 C 164.621094 390.304688 164.839844 390.570312 165.058594 390.824219 C 166.1875 392.152344 167.175781 393.488281 168.078125 394.808594 C 167.824219 394.90625 167.570312 395 167.316406 395.097656 C 167.085938 395.1875 166.859375 395.269531 166.632812 395.371094 C 166.304688 395.488281 165.988281 395.609375 165.667969 395.742188 C 165.441406 395.816406 165.210938 395.90625 164.984375 395.996094 L 164.992188 396.007812 C 164.523438 396.179688 164.050781 396.363281 163.585938 396.554688 C 163.230469 396.691406 162.863281 396.835938 162.511719 396.980469 C 161.949219 397.199219 161.394531 397.425781 160.835938 397.652344 C 160.730469 397.699219 160.621094 397.746094 160.511719 397.789062 C 160.128906 397.953125 159.746094 398.109375 159.371094 398.273438 C 159.199219 398.335938 159.035156 398.410156 158.863281 398.480469 C 158.554688 398.601562 158.253906 398.738281 157.945312 398.863281 C 157.4375 399.074219 156.925781 399.289062 156.417969 399.519531 C 155.773438 399.800781 155.125 400.082031 154.480469 400.367188 C 153.445312 400.820312 152.425781 401.285156 151.40625 401.746094 C 148.851562 402.921875 146.332031 404.121094 143.859375 405.359375 C 144.304688 405.121094 144.746094 404.902344 145.195312 404.683594 C 140.136719 402.183594 135.707031 398.707031 131.925781 394.214844 M 120.5 369.503906 C 120.117188 369.511719 119.710938 369.613281 119.308594 369.765625 L 119.035156 369.886719 C 118.707031 370.03125 118.417969 370.222656 118.136719 370.457031 L 117.980469 370.558594 L 117.871094 370.695312 L 117.652344 370.859375 L 117.527344 371.105469 C 117.328125 371.339844 117.152344 371.660156 117.007812 372.042969 C 116.945312 372.160156 116.917969 372.285156 116.878906 372.40625 C 116.863281 372.476562 116.84375 372.558594 116.828125 372.640625 C 108.3125 366.839844 102.308594 359.097656 98.890625 349.46875 C 98.734375 349.03125 98.589844 348.601562 98.453125 348.167969 C 98.308594 347.738281 98.179688 347.300781 98.054688 346.875 C 97.972656 346.601562 97.890625 346.320312 97.816406 346.046875 C 97.753906 345.820312 97.691406 345.59375 97.632812 345.375 C 104.457031 342.554688 111.039062 339.136719 117.398438 335.125 L 117.410156 335.125 C 118.753906 336.132812 120.042969 337.199219 121.273438 338.316406 C 121.492188 338.515625 121.710938 338.710938 121.917969 338.910156 C 121.703125 338.699219 121.480469 338.492188 121.265625 338.289062 C 121.710938 338.6875 122.15625 339.097656 122.582031 339.515625 C 122.621094 339.554688 122.65625 339.589844 122.691406 339.636719 C 122.65625 339.609375 122.621094 339.570312 122.582031 339.535156 C 122.648438 339.589844 122.703125 339.652344 122.765625 339.714844 C 123.128906 340.0625 123.484375 340.417969 123.839844 340.78125 L 123.847656 340.78125 C 124.121094 341.0625 124.394531 341.355469 124.65625 341.644531 C 124.664062 341.644531 124.675781 341.652344 124.664062 341.664062 C 124.929688 341.953125 125.195312 342.246094 125.457031 342.535156 C 125.722656 342.828125 125.976562 343.128906 126.222656 343.425781 L 126.222656 343.4375 C 126.292969 343.527344 126.375 343.609375 126.441406 343.699219 C 126.449219 343.710938 126.449219 343.71875 126.457031 343.71875 C 126.457031 343.726562 126.464844 343.726562 126.464844 343.738281 L 126.503906 343.773438 C 126.667969 343.957031 126.820312 344.15625 126.964844 344.347656 L 126.964844 344.355469 C 127.039062 344.445312 127.113281 344.527344 127.175781 344.621094 C 127.203125 344.648438 127.230469 344.683594 127.25 344.710938 C 127.257812 344.71875 127.257812 344.71875 127.269531 344.730469 C 127.414062 344.910156 127.558594 345.09375 127.695312 345.285156 C 128.058594 345.757812 128.414062 346.238281 128.75 346.730469 C 129.359375 347.59375 129.941406 348.476562 130.496094 349.386719 L 130.496094 349.402344 C 130.433594 349.566406 130.378906 349.738281 130.332031 349.902344 C 130.289062 350.011719 130.269531 350.128906 130.257812 350.242188 L 130.222656 350.441406 C 130.195312 350.75 130.195312 351.058594 130.230469 351.367188 L 130.230469 351.386719 C 130.257812 351.777344 130.3125 352.433594 130.414062 353.296875 C 130.796875 356.570312 131.90625 362.902344 135.0625 369.832031 C 130.722656 369.285156 125.984375 369.140625 120.808594 369.496094 C 120.703125 369.503906 120.601562 369.496094 120.5 369.503906 M 93.234375 340.816406 C 88.175781 330.820312 82.082031 317.269531 78.269531 306.277344 C 89.46875 303.765625 104.554688 297.382812 117.878906 289.453125 C 126.621094 284.238281 141.246094 274.363281 149.714844 262.273438 C 152.015625 269.933594 155.21875 279.109375 158.691406 286.421875 C 158.527344 286.660156 158.363281 286.886719 158.210938 287.113281 C 157.238281 288.488281 156.261719 289.839844 155.273438 291.171875 C 154.070312 292.789062 152.863281 294.371094 151.632812 295.917969 C 149.839844 298.179688 148.011719 300.363281 146.160156 302.496094 C 145.222656 303.566406 144.277344 304.621094 143.300781 305.660156 C 142 307.089844 140.675781 308.480469 139.320312 309.84375 C 134.234375 315.003906 128.921875 319.660156 123.410156 323.828125 C 121.703125 325.117188 119.964844 326.363281 118.207031 327.554688 C 116.171875 328.957031 114.117188 330.273438 112.023438 331.53125 C 106.976562 334.578125 101.773438 337.246094 96.433594 339.507812 C 95.371094 339.960938 94.304688 340.398438 93.234375 340.816406 M 69.503906 270.847656 C 76.792969 271.929688 84.230469 272.503906 91.746094 272.578125 C 91.625 278.558594 92.542969 285.246094 95.472656 292.019531 C 95.460938 292.15625 95.453125 292.285156 95.4375 292.421875 C 95.363281 293.101562 95.28125 293.777344 95.183594 294.429688 C 88.503906 297.277344 82.113281 299.433594 76.746094 300.605469 C 70.632812 291.375 68.207031 281.425781 69.503906 270.847656 M 96.65625 274.683594 C 96.636719 273.957031 96.636719 273.25 96.648438 272.546875 C 97.28125 272.546875 97.917969 272.53125 98.566406 272.503906 C 105.132812 272.320312 111.734375 271.757812 118.355469 270.820312 C 120.039062 273.648438 121.394531 276.59375 122.402344 279.640625 C 120.03125 281.253906 117.519531 282.84375 114.890625 284.410156 C 110.332031 287.128906 105.558594 289.65625 100.839844 291.882812 C 100.746094 291.929688 100.648438 291.976562 100.558594 292.019531 C 100.574219 291.820312 100.59375 291.609375 100.613281 291.414062 C 98.136719 286.238281 96.820312 280.644531 96.65625 274.683594 M 138.054688 266.941406 C 134.84375 270.152344 131.042969 273.371094 126.757812 276.535156 C 125.675781 274.390625 124.8125 272.171875 124.128906 269.886719 C 128.785156 269.085938 133.425781 268.113281 138.054688 266.941406 M 67.4375 245.511719 C 67.375 243.421875 67.339844 241.273438 67.328125 239.117188 C 69.476562 239.199219 71.625 239.265625 73.777344 239.265625 C 89.347656 239.265625 105.230469 237.152344 120.972656 232.996094 C 128.441406 231.023438 135.699219 228.519531 144.019531 225.039062 C 144.246094 236.132812 145.683594 247.148438 148.339844 257.871094 C 148.003906 257.980469 147.667969 258.097656 147.332031 258.210938 C 129.523438 263.847656 111.40625 266.714844 93.476562 266.714844 C 85.121094 266.714844 76.851562 266.074219 68.859375 264.820312 C 68.113281 258.410156 67.640625 251.925781 67.4375 245.511719 M 71.96875 193.921875 C 102.554688 210.90625 120.644531 216.714844 137.800781 221.246094 C 131.34375 223.800781 125.476562 225.738281 119.472656 227.320312 C 102.035156 231.925781 84.417969 233.933594 67.3125 233.261719 C 67.730469 220.015625 69.292969 206.8125 71.96875 193.921875 M 78.269531 168.203125 C 83.375 158.878906 90.675781 153.167969 93.667969 151.085938 C 101.484375 168.128906 101.746094 183.929688 94.460938 198.015625 C 94.324219 198.289062 94.179688 198.554688 94.035156 198.816406 C 87.703125 195.742188 80.738281 192.113281 72.976562 187.757812 C 73.132812 180.917969 74.886719 174.386719 78.269531 168.203125 M 99.410156 127.09375 C 105.65625 118.488281 113.625 113.757812 116.863281 112.074219 C 122.046875 128.773438 120.871094 143.554688 113.371094 156.058594 C 110.597656 158.179688 107.113281 161.207031 103.691406 165.164062 C 102.648438 159.871094 100.816406 154.214844 98 148.195312 C 97.953125 148.109375 97.917969 147.992188 97.871094 147.910156 C 97.714844 147.546875 97.472656 147.183594 97.164062 146.847656 L 96.945312 146.628906 C 96.699219 146.390625 96.386719 146.164062 96.070312 145.984375 L 95.90625 145.863281 L 95.734375 145.820312 L 95.5 145.671875 L 95.214844 145.636719 C 94.90625 145.539062 94.535156 145.492188 94.105469 145.484375 C 93.980469 145.484375 93.84375 145.492188 93.714844 145.5 C 93.488281 145.527344 93.195312 145.566406 92.941406 145.636719 C 92.824219 145.664062 92.714844 145.710938 92.597656 145.746094 L 92.414062 145.820312 C 92.113281 145.945312 91.832031 146.101562 91.578125 146.300781 C 92.558594 139.351562 95.160156 132.929688 99.410156 127.09375 M 133.117188 88.65625 C 141.792969 82.496094 150.832031 80.5625 154.445312 79.988281 C 154.171875 91.957031 151.351562 102.117188 146.039062 110.375 C 145.832031 110.421875 145.632812 110.472656 145.441406 110.558594 L 145.421875 110.558594 C 143.21875 111.285156 133.652344 114.730469 124.53125 122.796875 C 123.964844 118.695312 122.992188 114.359375 121.507812 109.765625 C 121.492188 109.664062 121.464844 109.554688 121.429688 109.457031 C 121.320312 109.082031 121.128906 108.683594 120.871094 108.320312 L 120.683594 108.066406 C 120.453125 107.792969 120.179688 107.535156 119.871094 107.320312 L 119.746094 107.183594 L 119.589844 107.109375 L 119.363281 106.9375 L 119.101562 106.863281 C 118.917969 106.78125 118.71875 106.71875 118.5 106.664062 C 121.648438 99.371094 126.523438 93.347656 133.117188 88.65625 M 166.066406 66.261719 C 177.226562 62.152344 187.550781 62.707031 191.609375 63.152344 C 189.734375 69.484375 187.324219 75.148438 184.386719 80.152344 C 174.917969 83.652344 165.023438 90.449219 157.765625 103.253906 C 156.800781 103.636719 155.855469 103.972656 154.90625 104.28125 C 157.683594 97.441406 159.453125 89.210938 159.589844 79.285156 C 159.589844 79.179688 159.609375 79.078125 159.609375 78.96875 C 159.628906 78.578125 159.566406 78.132812 159.4375 77.714844 L 159.347656 77.414062 C 159.21875 77.078125 159.035156 76.75 158.828125 76.441406 L 158.738281 76.277344 L 158.601562 76.160156 L 158.445312 75.921875 L 158.226562 75.757812 C 157.972656 75.539062 157.671875 75.339844 157.28125 75.140625 C 157.171875 75.078125 157.054688 75.03125 156.917969 74.984375 C 156.707031 74.894531 156.425781 74.824219 156.164062 74.765625 C 156.035156 74.75 155.925781 74.730469 155.816406 74.722656 L 155.597656 74.695312 C 155.28125 74.6875 154.960938 74.710938 154.644531 74.765625 L 154.625 74.777344 C 153.945312 74.859375 152.527344 75.078125 150.597656 75.515625 C 155.054688 71.511719 160.210938 68.417969 166.066406 66.261719 M 190.277344 45.773438 C 194.417969 50.246094 201.949219 55.859375 211.652344 61.617188 C 206.476562 66.664062 200.695312 70.402344 194.324219 72.800781 C 195.4375 70.027344 196.453125 67.074219 197.363281 63.90625 C 197.390625 63.789062 197.445312 63.6875 197.472656 63.570312 C 197.601562 63.144531 197.664062 62.664062 197.65625 62.179688 L 197.648438 61.824219 C 197.601562 61.414062 197.511719 61.003906 197.363281 60.605469 L 197.308594 60.414062 L 197.226562 60.234375 L 197.117188 59.941406 L 196.917969 59.703125 C 196.71875 59.398438 196.4375 59.078125 196.089844 58.769531 C 195.980469 58.660156 195.863281 58.578125 195.746094 58.488281 C 195.535156 58.34375 195.261719 58.175781 194.988281 58.03125 C 194.871094 57.976562 194.746094 57.914062 194.625 57.875 L 194.40625 57.796875 C 194.070312 57.675781 193.707031 57.613281 193.351562 57.585938 L 193.335938 57.578125 C 191.125 57.277344 181.828125 56.277344 170.75 58.933594 C 176.382812 52.664062 182.902344 48.261719 190.277344 45.773438 M 242.914062 28.207031 C 242.867188 28.445312 242.851562 28.691406 242.878906 28.9375 C 243.167969 32.300781 247.394531 47.5 254.246094 61.660156 C 257.636719 68.683594 261.148438 74.441406 264.761719 78.921875 C 234.628906 69.71875 205.851562 53.558594 195.371094 43.117188 C 206.296875 36.503906 228.03125 30.171875 242.914062 28.207031 M 283.796875 22.796875 C 301.3125 22.796875 314.820312 25.796875 318.742188 28.855469 C 315.738281 39.421875 300.03125 84.972656 284.535156 84.972656 C 265.742188 84.972656 250.84375 39.433594 248.816406 29.761719 C 254.273438 25.507812 267.671875 22.796875 283.796875 22.796875 M 319.679688 44.117188 C 321.359375 39.53125 322.625 35.65625 323.386719 33.21875 C 323.824219 31.847656 324.152344 30.746094 324.371094 29.992188 C 324.46875 29.636719 324.570312 29.292969 324.652344 28.945312 C 339.097656 31.472656 357.613281 37.175781 367.417969 43.105469 C 361.398438 49.082031 349.246094 57.015625 335.175781 64.054688 C 324.835938 69.226562 314.082031 73.675781 303.542969 77.1875 C 310.019531 67.992188 315.511719 55.476562 319.679688 44.117188 M 372.511719 45.773438 C 379.886719 48.261719 386.417969 52.664062 392.046875 58.933594 C 380.960938 56.277344 371.675781 57.277344 369.457031 57.578125 L 369.445312 57.585938 C 369.082031 57.613281 368.726562 57.675781 368.390625 57.796875 L 368.164062 57.875 C 368.046875 57.914062 367.929688 57.976562 367.808594 58.03125 C 367.527344 58.175781 367.261719 58.34375 367.046875 58.488281 C 366.933594 58.578125 366.816406 58.660156 366.707031 58.769531 C 366.355469 59.078125 366.082031 59.398438 365.882812 59.703125 L 365.671875 59.941406 L 365.570312 60.234375 L 365.492188 60.414062 L 365.425781 60.605469 C 365.289062 61.003906 365.1875 61.414062 365.15625 61.824219 L 365.136719 62.179688 C 365.128906 62.664062 365.1875 63.144531 365.316406 63.570312 C 365.34375 63.6875 365.398438 63.789062 365.433594 63.90625 C 366.335938 67.074219 367.355469 70.027344 368.472656 72.800781 C 367.835938 72.566406 367.210938 72.320312 366.601562 72.058594 C 361.660156 69.957031 357.105469 67.019531 352.910156 63.269531 C 352.320312 62.734375 351.726562 62.179688 351.148438 61.617188 C 360.851562 55.859375 368.371094 50.246094 372.511719 45.773438 M 396.722656 66.261719 C 402.582031 68.417969 407.746094 71.511719 412.203125 75.515625 C 410.265625 75.078125 408.847656 74.859375 408.175781 74.777344 L 408.148438 74.765625 C 407.835938 74.710938 407.511719 74.6875 407.199219 74.695312 L 406.972656 74.722656 C 406.863281 74.730469 406.753906 74.75 406.628906 74.765625 C 406.375 74.824219 406.089844 74.894531 405.882812 74.984375 C 405.746094 75.03125 405.628906 75.078125 405.507812 75.140625 C 405.125 75.339844 404.828125 75.539062 404.574219 75.757812 L 404.34375 75.921875 L 404.191406 76.160156 L 404.0625 76.277344 L 403.972656 76.441406 C 403.761719 76.75 403.582031 77.078125 403.445312 77.414062 L 403.363281 77.714844 C 403.226562 78.132812 403.171875 78.578125 403.191406 78.96875 C 403.191406 79.078125 403.199219 79.179688 403.207031 79.285156 C 403.335938 89.210938 405.109375 97.441406 407.890625 104.28125 C 406.945312 103.972656 405.992188 103.636719 405.027344 103.253906 C 397.777344 90.449219 387.875 83.652344 378.414062 80.152344 C 375.476562 75.148438 373.066406 69.484375 371.191406 63.152344 C 375.242188 62.707031 385.570312 62.152344 396.722656 66.261719 M 429.675781 88.65625 C 436.269531 93.347656 441.144531 99.371094 444.292969 106.664062 C 444.082031 106.71875 443.882812 106.78125 443.699219 106.863281 L 443.4375 106.9375 L 443.207031 107.109375 L 443.042969 107.183594 L 442.917969 107.320312 C 442.609375 107.535156 442.34375 107.792969 442.109375 108.066406 L 441.925781 108.320312 C 441.664062 108.683594 441.480469 109.082031 441.363281 109.457031 C 441.335938 109.554688 441.308594 109.664062 441.28125 109.765625 C 439.808594 114.359375 438.824219 118.695312 438.261719 122.796875 C 429.148438 114.730469 419.582031 111.285156 417.371094 110.558594 L 417.359375 110.558594 C 417.160156 110.472656 416.957031 110.421875 416.761719 110.375 C 411.449219 102.117188 408.621094 91.957031 408.347656 79.988281 C 411.957031 80.5625 421 82.496094 429.675781 88.65625 M 463.390625 127.09375 C 467.628906 132.929688 470.238281 139.351562 471.214844 146.300781 C 470.957031 146.101562 470.6875 145.945312 470.386719 145.820312 L 470.195312 145.746094 C 470.085938 145.710938 469.976562 145.664062 469.859375 145.636719 C 469.59375 145.566406 469.3125 145.527344 469.085938 145.5 C 468.957031 145.492188 468.8125 145.484375 468.683594 145.484375 C 468.265625 145.492188 467.894531 145.539062 467.582031 145.636719 L 467.300781 145.671875 L 467.054688 145.820312 L 466.890625 145.863281 L 466.730469 145.984375 C 466.410156 146.164062 466.101562 146.390625 465.847656 146.628906 L 465.628906 146.847656 C 465.328125 147.183594 465.082031 147.546875 464.917969 147.910156 C 464.875 147.992188 464.847656 148.109375 464.800781 148.195312 C 461.972656 154.214844 460.152344 159.871094 459.097656 165.164062 C 455.6875 161.207031 452.203125 158.179688 449.421875 156.058594 C 441.925781 143.554688 440.746094 128.773438 445.929688 112.074219 C 449.175781 113.757812 457.144531 118.488281 463.390625 127.09375 M 484.519531 168.203125 C 487.902344 174.386719 489.65625 180.917969 489.824219 187.757812 C 482.054688 192.113281 475.097656 195.742188 468.765625 198.816406 C 468.621094 198.554688 468.476562 198.289062 468.328125 198.015625 C 461.042969 183.929688 461.316406 168.128906 469.121094 151.085938 C 472.113281 153.167969 479.417969 158.878906 484.519531 168.203125 M 495.480469 233.261719 C 478.371094 233.933594 460.761719 231.925781 443.320312 227.320312 C 437.324219 225.738281 431.457031 223.800781 425 221.246094 C 442.144531 216.714844 460.246094 210.90625 490.824219 193.921875 C 493.503906 206.8125 495.070312 220.015625 495.480469 233.261719 M 495.351562 245.519531 C 495.160156 251.925781 494.6875 258.410156 493.933594 264.820312 C 485.949219 266.074219 477.671875 266.714844 469.3125 266.714844 C 451.386719 266.714844 433.269531 263.847656 415.476562 258.210938 C 415.132812 258.097656 414.792969 257.980469 414.449219 257.871094 C 417.113281 247.148438 418.550781 236.132812 418.777344 225.039062 C 427.089844 228.519531 434.351562 231.023438 441.816406 232.996094 C 457.5625 237.152344 473.441406 239.265625 489.011719 239.265625 C 491.167969 239.265625 493.324219 239.199219 495.460938 239.117188 C 495.453125 241.265625 495.425781 243.410156 495.351562 245.519531 M 486.058594 300.601562 C 480.691406 299.429688 474.304688 297.261719 467.628906 294.417969 C 467.539062 293.761719 467.449219 293.097656 467.375 292.417969 C 467.367188 292.277344 467.355469 292.132812 467.347656 291.988281 C 470.265625 285.210938 471.1875 278.546875 471.066406 272.570312 C 478.597656 272.488281 486.058594 271.914062 493.3125 270.851562 C 494.605469 281.417969 492.167969 291.371094 486.058594 300.601562 M 440.433594 279.628906 C 441.453125 276.570312 442.789062 273.625 444.472656 270.796875 C 451.714844 271.816406 458.945312 272.417969 466.164062 272.550781 C 466.183594 273.253906 466.183594 273.960938 466.164062 274.6875 C 466 280.828125 464.589844 286.566406 461.972656 291.878906 C 457.25 289.652344 452.488281 287.132812 447.921875 284.414062 C 445.292969 282.839844 442.808594 281.246094 440.433594 279.628906 M 424.738281 266.941406 C 429.367188 268.113281 434.011719 269.085938 438.660156 269.886719 C 437.988281 272.171875 437.117188 274.390625 436.042969 276.535156 C 431.75 273.371094 427.949219 270.152344 424.738281 266.941406 M 472.375 335.105469 C 471.410156 337.097656 470.46875 339.015625 469.558594 340.816406 C 468.484375 340.398438 467.421875 339.960938 466.355469 339.507812 C 461.015625 337.246094 455.824219 334.585938 450.777344 331.539062 C 449.019531 330.484375 447.292969 329.382812 445.582031 328.230469 C 445.246094 328.019531 444.910156 327.792969 444.582031 327.554688 C 442.828125 326.363281 441.101562 325.128906 439.390625 323.828125 C 433.875 319.667969 428.566406 315.003906 423.472656 309.84375 C 422.125 308.480469 420.796875 307.089844 419.5 305.660156 C 418.523438 304.621094 417.578125 303.566406 416.640625 302.496094 C 414.785156 300.363281 412.957031 298.171875 411.15625 295.90625 C 409.9375 294.363281 408.71875 292.78125 407.527344 291.171875 C 406.539062 289.839844 405.5625 288.488281 404.589844 287.113281 C 404.433594 286.886719 404.273438 286.660156 404.109375 286.421875 C 407.574219 279.109375 410.773438 269.933594 413.085938 262.273438 C 421.554688 274.363281 436.179688 284.238281 444.917969 289.453125 C 458.234375 297.382812 473.324219 303.765625 484.519531 306.277344 C 481.390625 315.292969 476.734375 326.027344 472.375 335.105469 M 463.902344 349.46875 C 460.480469 359.097656 454.476562 366.839844 445.972656 372.640625 C 445.957031 372.558594 445.929688 372.476562 445.910156 372.40625 C 445.875 372.285156 445.847656 372.160156 445.792969 372.042969 C 445.648438 371.660156 445.472656 371.339844 445.273438 371.105469 L 445.144531 370.859375 L 444.925781 370.695312 L 444.820312 370.558594 L 444.664062 370.457031 C 444.382812 370.222656 444.082031 370.03125 443.761719 369.886719 L 443.480469 369.765625 C 443.082031 369.613281 442.671875 369.511719 442.296875 369.503906 C 442.191406 369.496094 442.089844 369.503906 441.992188 369.496094 C 436.8125 369.140625 432.074219 369.285156 427.738281 369.839844 C 430.894531 362.902344 432.003906 356.554688 432.386719 353.277344 C 432.496094 352.421875 432.539062 351.777344 432.566406 351.386719 L 432.558594 351.367188 C 432.605469 351.058594 432.605469 350.75 432.566406 350.441406 L 432.53125 350.242188 C 432.523438 350.128906 432.503906 350.011719 432.46875 349.902344 C 432.421875 349.730469 432.359375 349.558594 432.292969 349.394531 C 434.804688 345.285156 437.878906 341.574219 441.515625 338.308594 L 441.515625 338.296875 C 442.738281 337.1875 444.027344 336.125 445.382812 335.125 C 451.742188 339.136719 458.332031 342.554688 465.15625 345.375 C 464.808594 346.71875 464.390625 348.085938 463.902344 349.46875 M 380.585938 386.75 C 389.648438 382.867188 395.976562 377.417969 400.398438 371.550781 C 403.726562 367.128906 405.972656 362.472656 407.472656 358.054688 C 407.636719 357.570312 407.792969 357.097656 407.9375 356.625 C 412.894531 354.460938 418.453125 352.988281 424.5625 352.222656 L 424.5625 352.214844 C 424.929688 352.167969 425.300781 352.125 425.671875 352.085938 C 426.292969 352.011719 426.917969 351.949219 427.546875 351.898438 C 427.410156 353.476562 427.054688 356.152344 426.226562 359.425781 C 425.355469 362.800781 423.964844 366.8125 421.734375 370.894531 C 420.910156 371.085938 420.097656 371.296875 419.296875 371.523438 C 405.136719 375.445312 396.214844 383.992188 390.757812 391.933594 C 387.171875 390.695312 383.546875 389.53125 379.871094 388.429688 C 379.988281 387.859375 380.222656 387.292969 380.585938 386.75 M 363.117188 366.648438 C 362.351562 367.148438 361.5625 367.621094 360.742188 368.078125 C 355.414062 368.722656 350.675781 369.921875 346.472656 371.515625 C 353.847656 361.609375 355.957031 351.160156 356.332031 348.941406 L 356.332031 348.921875 C 356.40625 348.621094 356.449219 348.3125 356.441406 348.003906 L 356.421875 347.804688 C 356.421875 347.695312 356.414062 347.566406 356.394531 347.464844 C 356.359375 347.191406 356.285156 346.929688 356.214844 346.71875 C 356.167969 346.601562 356.140625 346.476562 356.078125 346.355469 C 355.914062 345.992188 355.722656 345.675781 355.511719 345.4375 L 355.375 345.210938 L 355.15625 345.046875 L 355.050781 344.917969 L 354.875 344.828125 C 354.59375 344.601562 354.285156 344.429688 353.957031 344.292969 L 353.683594 344.183594 C 353.332031 344.054688 352.976562 343.992188 352.636719 343.984375 C 357.949219 336.46875 365.554688 330.730469 375.347656 326.820312 L 375.347656 326.808594 C 377.039062 326.136719 378.804688 325.519531 380.632812 324.945312 L 380.640625 324.945312 C 381.316406 324.734375 381.980469 324.535156 382.671875 324.34375 C 382.90625 326.808594 383.164062 331.996094 381.988281 338.207031 C 381.652344 340.035156 381.179688 341.953125 380.550781 343.917969 C 380.296875 344.730469 380.015625 345.546875 379.695312 346.367188 C 379.132812 347.820312 378.503906 349.230469 377.816406 350.59375 L 377.816406 350.605469 C 374.449219 357.171875 369.539062 362.527344 363.117188 366.648438 M 341.558594 379.207031 L 341.570312 379.207031 C 347.238281 376.007812 353.746094 373.941406 361.070312 373.023438 L 362.242188 372.886719 C 363.550781 372.75 364.898438 372.640625 366.261719 372.578125 C 367.21875 372.53125 368.183594 372.496094 369.15625 372.488281 C 368.773438 374.761719 367.800781 379.292969 365.472656 384.492188 L 365.464844 384.492188 C 365.398438 384.472656 365.34375 384.457031 365.28125 384.449219 C 363.335938 383.964844 361.378906 383.5 359.414062 383.058594 C 353.402344 381.691406 347.308594 380.484375 341.132812 379.457031 C 341.28125 379.371094 341.425781 379.292969 341.558594 379.207031 M 304.859375 373.140625 C 305.425781 372.140625 306.054688 371.125 306.734375 370.085938 C 307.5625 368.847656 308.472656 367.59375 309.480469 366.335938 C 309.546875 366.257812 309.609375 366.175781 309.679688 366.101562 C 310.664062 364.902344 311.691406 363.773438 312.765625 362.710938 C 316.867188 358.609375 321.632812 355.417969 327.027344 353.140625 C 332.128906 350.988281 337.804688 349.648438 344.023438 349.148438 C 345.835938 348.996094 347.691406 348.921875 349.601562 348.914062 C 350.15625 348.902344 350.726562 348.914062 351.292969 348.921875 C 350.609375 352.324219 348.4375 360.808594 342.316406 368.859375 C 342.242188 368.957031 342.171875 369.050781 342.097656 369.148438 C 341.113281 370.421875 340.078125 371.625 338.976562 372.75 C 337.03125 374.78125 334.902344 376.570312 332.609375 378.125 C 329.5625 377.691406 326.5 377.289062 323.414062 376.945312 C 316.914062 376.1875 310.347656 375.625 303.742188 375.25 C 304.078125 374.570312 304.453125 373.859375 304.859375 373.140625 M 259.46875 366.394531 C 258.582031 365.121094 257.609375 363.847656 256.546875 362.574219 L 256.675781 362.5625 C 265.660156 343.136719 283.652344 178.972656 283.652344 178.972656 C 283.652344 178.972656 299.804688 330.074219 309.046875 359.5 C 307.609375 360.945312 306.316406 362.4375 305.152344 363.929688 L 305.144531 363.929688 C 293.992188 359.171875 278.148438 356.796875 259.46875 366.394531 M 257.839844 372.96875 C 259.265625 372.113281 260.695312 371.324219 262.121094 370.605469 C 274.894531 364.136719 287.535156 362.957031 299.796875 367.113281 C 300.632812 367.394531 301.441406 367.703125 302.230469 368.023438 C 300.976562 369.976562 299.914062 371.894531 299.023438 373.707031 C 296.421875 373.996094 293.863281 374.34375 291.691406 374.75 C 288.945312 374.6875 286.1875 374.652344 283.433594 374.652344 C 277.09375 374.652344 270.761719 374.824219 264.46875 375.171875 C 262.703125 375.261719 260.941406 375.371094 259.183594 375.496094 C 258.175781 375.5625 257.175781 375.632812 256.164062 375.714844 C 255.765625 375.324219 255.417969 374.96875 255.128906 374.660156 C 256.027344 374.070312 256.9375 373.507812 257.839844 372.96875 M 184.976562 350.605469 L 184.976562 350.59375 C 184.285156 349.230469 183.65625 347.820312 183.09375 346.367188 C 182.785156 345.546875 182.503906 344.738281 182.238281 343.929688 C 181.613281 341.960938 181.148438 340.035156 180.800781 338.207031 C 179.636719 331.996094 179.882812 326.808594 180.128906 324.34375 C 180.8125 324.535156 181.492188 324.734375 182.15625 324.945312 C 183.984375 325.507812 185.75 326.136719 187.449219 326.808594 C 197.246094 330.730469 204.851562 336.480469 210.160156 343.984375 C 209.824219 343.992188 209.46875 344.054688 209.117188 344.183594 L 208.84375 344.292969 C 208.507812 344.429688 208.195312 344.601562 207.914062 344.828125 L 207.75 344.917969 L 207.640625 345.046875 L 207.414062 345.210938 L 207.289062 345.4375 C 207.070312 345.675781 206.878906 345.992188 206.714844 346.355469 C 206.660156 346.476562 206.625 346.601562 206.585938 346.71875 C 206.515625 346.929688 206.441406 347.191406 206.40625 347.464844 C 206.378906 347.566406 206.367188 347.695312 206.367188 347.804688 L 206.351562 348.003906 C 206.351562 348.3125 206.398438 348.621094 206.46875 348.921875 L 206.46875 348.941406 C 206.839844 351.160156 208.953125 361.609375 216.328125 371.515625 C 212.117188 369.914062 207.378906 368.722656 202.046875 368.078125 C 201.238281 367.621094 200.449219 367.148438 199.683594 366.648438 C 193.253906 362.527344 188.351562 357.171875 184.976562 350.605469 M 156.035156 333.277344 L 155.84375 333.304688 C 155.492188 333.359375 155.152344 333.449219 154.816406 333.605469 L 154.632812 333.660156 L 154.5 333.75 L 154.242188 333.859375 L 154.0625 334.050781 C 153.796875 334.234375 153.542969 334.488281 153.289062 334.816406 C 153.207031 334.914062 153.144531 335.015625 153.078125 335.125 C 152.960938 335.316406 152.835938 335.5625 152.726562 335.808594 C 152.667969 335.90625 152.644531 336.015625 152.617188 336.117188 L 152.550781 336.316406 C 152.480469 336.617188 152.433594 336.925781 152.445312 337.234375 L 152.433594 337.253906 C 152.324219 338.761719 152.089844 344.019531 153.378906 350.730469 C 148.214844 348.847656 142.265625 347.511719 135.4375 346.929688 C 133.078125 343 130.097656 339.105469 126.304688 335.441406 C 125.648438 333.75 125.09375 332.011719 124.640625 330.222656 C 131.289062 325.398438 137.664062 319.894531 143.746094 313.71875 C 145.421875 315.3125 146.976562 316.984375 148.394531 318.730469 C 149.90625 323.5625 152.316406 328.53125 156.035156 333.277344 M 180.675781 319.351562 C 180.582031 319.316406 180.5 319.285156 180.410156 319.269531 C 180.046875 319.160156 179.628906 319.105469 179.199219 319.121094 L 178.902344 319.140625 C 178.546875 319.179688 178.199219 319.257812 177.863281 319.394531 L 177.683594 319.433594 L 177.539062 319.523438 L 177.28125 319.613281 L 177.082031 319.796875 C 176.808594 319.960938 176.546875 320.214844 176.28125 320.523438 C 176.191406 320.613281 176.117188 320.714844 176.042969 320.824219 C 175.917969 321.003906 175.773438 321.242188 175.664062 321.476562 C 175.597656 321.578125 175.5625 321.679688 175.527344 321.789062 L 175.453125 321.976562 C 175.371094 322.28125 175.308594 322.582031 175.296875 322.898438 L 175.289062 322.90625 C 175.070312 324.671875 174.417969 331.59375 176.191406 340.117188 C 172.742188 338.246094 168.867188 336.585938 164.511719 335.234375 C 164.003906 334.761719 163.511719 334.289062 163.039062 333.796875 C 157.664062 328.3125 154.070312 321.84375 152.296875 314.457031 C 152.117188 313.691406 151.949219 312.925781 151.804688 312.144531 C 151.398438 309.933594 151.179688 307.789062 151.097656 305.757812 C 154.261719 302.09375 157.355469 298.238281 160.355469 294.171875 C 170.480469 300.746094 177.28125 309.1875 180.675781 319.351562 M 411.703125 305.75 C 411.613281 307.789062 411.394531 309.925781 410.984375 312.144531 C 410.839844 312.925781 410.675781 313.710938 410.492188 314.472656 C 408.710938 321.851562 405.125 328.300781 399.769531 333.777344 C 399.289062 334.269531 398.796875 334.761719 398.277344 335.234375 C 393.921875 336.585938 390.046875 338.234375 386.609375 340.109375 C 388.382812 331.585938 387.726562 324.671875 387.507812 322.90625 L 387.5 322.898438 C 387.484375 322.582031 387.425781 322.28125 387.34375 321.976562 L 387.261719 321.789062 C 387.238281 321.679688 387.191406 321.578125 387.136719 321.476562 C 387.027344 321.242188 386.875 321.003906 386.753906 320.824219 C 386.683594 320.714844 386.609375 320.613281 386.507812 320.523438 C 386.253906 320.214844 385.992188 319.960938 385.710938 319.796875 L 385.519531 319.613281 L 385.261719 319.523438 L 385.117188 319.433594 L 384.925781 319.394531 C 384.597656 319.257812 384.253906 319.179688 383.898438 319.140625 L 383.597656 319.121094 C 383.164062 319.105469 382.753906 319.160156 382.378906 319.269531 C 382.289062 319.285156 382.214844 319.316406 382.125 319.351562 C 385.507812 309.179688 392.320312 300.746094 402.445312 294.160156 C 405.425781 298.21875 408.511719 302.074219 411.703125 305.742188 Z M 410.355469 337.253906 L 410.355469 337.234375 C 410.355469 336.925781 410.320312 336.617188 410.238281 336.316406 L 410.175781 336.117188 C 410.15625 336.015625 410.121094 335.90625 410.074219 335.808594 C 409.964844 335.5625 409.839844 335.316406 409.722656 335.125 C 409.65625 335.015625 409.59375 334.914062 409.5 334.816406 C 409.246094 334.488281 408.992188 334.234375 408.730469 334.050781 L 408.546875 333.859375 L 408.300781 333.75 L 408.15625 333.660156 L 407.972656 333.605469 C 407.648438 333.449219 407.300781 333.359375 406.945312 333.304688 L 406.765625 333.277344 C 410.492188 328.519531 412.90625 323.5625 414.414062 318.722656 L 414.414062 318.710938 C 415.832031 316.976562 417.378906 315.300781 419.050781 313.710938 C 425.117188 319.894531 431.492188 325.398438 438.160156 330.222656 C 437.707031 332.003906 437.152344 333.742188 436.496094 335.433594 C 432.695312 339.097656 429.703125 343 427.355469 346.9375 C 420.527344 347.511719 414.578125 348.847656 409.410156 350.742188 C 410.703125 344.019531 410.464844 338.761719 410.355469 337.253906 M 349.507812 77.285156 L 349.492188 77.296875 C 349.15625 77.3125 348.828125 77.394531 348.507812 77.523438 L 348.316406 77.605469 C 348.199219 77.632812 348.089844 77.6875 347.980469 77.75 C 347.738281 77.886719 347.492188 78.050781 347.300781 78.199219 C 347.191406 78.277344 347.089844 78.359375 346.992188 78.460938 C 346.671875 78.75 346.425781 79.058594 346.261719 79.359375 L 346.070312 79.578125 L 345.980469 79.859375 L 345.910156 80.015625 L 345.863281 80.207031 C 345.742188 80.578125 345.664062 80.960938 345.632812 81.34375 L 345.632812 81.660156 C 345.644531 82.117188 345.707031 82.5625 345.84375 82.953125 C 345.863281 83.054688 345.917969 83.152344 345.953125 83.261719 C 347.226562 87.226562 348.679688 90.828125 350.285156 94.121094 C 338.3125 92.765625 327.761719 87.183594 318.785156 77.46875 C 327.800781 73.847656 336.296875 69.820312 343.851562 65.734375 C 345.871094 66.226562 347.855469 66.84375 349.773438 67.617188 C 354.382812 71.65625 359.148438 74.566406 363.863281 76.652344 C 363.960938 76.742188 364.050781 76.832031 364.152344 76.921875 C 356.777344 76.210938 351.121094 77.011719 349.507812 77.285156 M 380.863281 96.53125 L 380.851562 96.542969 C 380.515625 96.496094 380.171875 96.46875 379.832031 96.496094 L 379.617188 96.523438 C 379.496094 96.53125 379.378906 96.558594 379.25 96.585938 C 378.976562 96.652344 378.695312 96.75 378.46875 96.839844 C 378.332031 96.894531 378.214844 96.941406 378.097656 97.003906 C 377.707031 97.222656 377.386719 97.449219 377.140625 97.695312 L 376.90625 97.878906 L 376.742188 98.125 L 376.613281 98.242188 L 376.53125 98.433594 C 376.304688 98.761719 376.132812 99.105469 376.011719 99.46875 L 375.921875 99.777344 C 375.804688 100.234375 375.757812 100.6875 375.785156 101.105469 C 375.796875 101.214844 375.804688 101.324219 375.8125 101.433594 C 376.050781 106.726562 376.722656 111.539062 377.742188 115.933594 C 365.433594 109.59375 356.539062 98.351562 351.265625 82.398438 C 355.011719 81.859375 364.5625 81.050781 375.011719 84.527344 C 384.109375 87.566406 391.503906 93.023438 397.160156 100.816406 C 389.292969 97.542969 382.644531 96.714844 380.863281 96.53125 M 409.828125 131.074219 C 406.328125 129.402344 403.625 128.527344 402.609375 128.230469 L 402.582031 128.238281 C 402.289062 128.128906 401.980469 128.046875 401.652344 128.011719 L 401.445312 128 C 401.324219 127.992188 401.207031 127.984375 401.097656 127.992188 C 400.816406 128.011719 400.535156 128.039062 400.304688 128.09375 C 400.1875 128.121094 400.050781 128.136719 399.925781 128.183594 C 399.535156 128.300781 399.179688 128.464844 398.90625 128.664062 L 398.652344 128.765625 L 398.460938 128.976562 L 398.3125 129.074219 L 398.195312 129.230469 C 397.933594 129.492188 397.714844 129.792969 397.535156 130.101562 L 397.386719 130.382812 C 397.1875 130.785156 397.078125 131.203125 397.023438 131.59375 C 397.003906 131.703125 397.003906 131.8125 396.988281 131.914062 C 396.585938 134.660156 396.332031 137.296875 396.214844 139.832031 C 387.128906 130.53125 382.097656 117.84375 381.234375 102 C 385.019531 102.472656 394.566406 104.191406 403.84375 110.363281 C 406.417969 112.074219 408.746094 113.984375 410.859375 116.078125 C 410.011719 121.453125 409.703125 126.445312 409.828125 131.074219 M 421.664062 145.363281 C 427.710938 151.3125 431.648438 158.425781 433.496094 166.628906 C 433.277344 167.527344 433.066406 168.417969 432.886719 169.304688 C 430.148438 166.480469 427.890625 164.71875 427.039062 164.082031 L 427.027344 164.074219 C 426.785156 163.855469 426.507812 163.671875 426.21875 163.539062 L 426.027344 163.453125 C 425.917969 163.398438 425.820312 163.355469 425.699219 163.328125 C 425.445312 163.238281 425.164062 163.183594 424.9375 163.136719 C 424.808594 163.117188 424.683594 163.101562 424.546875 163.089844 C 424.117188 163.074219 423.746094 163.101562 423.425781 163.183594 L 423.144531 163.210938 L 422.890625 163.328125 L 422.726562 163.371094 L 422.5625 163.472656 C 422.226562 163.644531 421.917969 163.828125 421.625 164.066406 L 421.398438 164.273438 C 421.082031 164.589844 420.816406 164.9375 420.644531 165.292969 C 420.582031 165.375 420.542969 165.480469 420.5 165.566406 C 418.015625 170.105469 416.148438 174.460938 414.804688 178.625 L 414.769531 178.589844 C 403.738281 167.191406 399.417969 151.992188 401.960938 133.421875 C 405.425781 134.550781 414.066406 137.898438 421.664062 145.363281 M 441.433594 151.785156 C 440.980469 151.804688 440.570312 151.894531 440.234375 152.015625 L 439.933594 152.066406 L 439.679688 152.230469 L 439.507812 152.304688 L 439.335938 152.441406 C 438.988281 152.648438 438.679688 152.902344 438.386719 153.1875 L 438.179688 153.449219 C 437.871094 153.820312 437.632812 154.222656 437.46875 154.632812 C 437.40625 154.742188 437.386719 154.851562 437.34375 154.960938 C 436.921875 155.988281 436.542969 157.003906 436.167969 158.015625 C 431.414062 146.238281 422.910156 138.75 415.585938 134.222656 C 415.148438 128.566406 415.449219 122.554688 416.503906 116.1875 C 420.25 117.535156 429.566406 121.453125 437.597656 129.828125 C 437.625 129.859375 437.640625 129.886719 437.667969 129.910156 C 437.453125 138.371094 439.054688 145.636719 441.601562 151.777344 C 441.542969 151.785156 441.492188 151.777344 441.433594 151.785156 M 442.820312 209.722656 C 435.042969 212.449219 428.121094 214.371094 421.261719 216.152344 C 421.164062 215.933594 421.0625 215.726562 420.960938 215.507812 C 414.566406 201 415.796875 185.246094 424.644531 168.710938 C 427.492188 170.976562 434.421875 177.125 438.960938 186.746094 C 442.410156 194.105469 443.691406 201.78125 442.820312 209.722656 M 464.183594 200.992188 C 458.332031 203.699219 453.042969 205.921875 448.109375 207.792969 C 448.929688 193.488281 443.289062 182.300781 437.589844 174.785156 C 438.371094 169.320312 439.914062 163.671875 442.226562 157.859375 C 445.273438 159.753906 452.277344 164.675781 458.089844 172.859375 C 457.363281 184.238281 460.246094 193.640625 464.183594 200.992188 M 181.566406 102 C 180.703125 117.84375 175.664062 130.53125 166.585938 139.832031 C 166.457031 137.296875 166.214844 134.660156 165.8125 131.914062 C 165.792969 131.8125 165.785156 131.703125 165.769531 131.59375 C 165.722656 131.203125 165.605469 130.785156 165.414062 130.382812 L 165.257812 130.101562 C 165.085938 129.792969 164.859375 129.492188 164.59375 129.230469 L 164.476562 129.074219 L 164.328125 128.976562 L 164.148438 128.765625 L 163.894531 128.664062 C 163.621094 128.464844 163.265625 128.300781 162.875 128.183594 C 162.738281 128.136719 162.613281 128.121094 162.484375 128.09375 C 162.265625 128.039062 161.976562 128.011719 161.703125 127.992188 C 161.59375 127.984375 161.464844 127.992188 161.355469 128 L 161.136719 128.011719 C 160.820312 128.046875 160.5 128.128906 160.210938 128.238281 L 160.183594 128.230469 C 159.171875 128.527344 156.472656 129.402344 152.960938 131.074219 C 153.097656 126.445312 152.789062 121.453125 151.941406 116.078125 C 154.042969 113.984375 156.371094 112.074219 158.945312 110.363281 C 168.234375 104.191406 177.773438 102.472656 181.566406 102 M 211.527344 82.398438 C 206.257812 98.351562 197.363281 109.59375 185.050781 115.933594 C 186.070312 111.539062 186.75 106.726562 186.988281 101.433594 C 186.988281 101.324219 187.003906 101.214844 187.003906 101.105469 C 187.03125 100.6875 186.988281 100.234375 186.878906 99.777344 L 186.785156 99.46875 C 186.660156 99.105469 186.488281 98.761719 186.269531 98.433594 L 186.1875 98.242188 L 186.058594 98.125 L 185.894531 97.878906 L 185.660156 97.695312 C 185.414062 97.449219 185.085938 97.222656 184.703125 97.003906 C 184.574219 96.941406 184.457031 96.894531 184.332031 96.839844 C 184.101562 96.75 183.8125 96.652344 183.539062 96.585938 C 183.421875 96.558594 183.304688 96.53125 183.183594 96.523438 L 182.964844 96.496094 C 182.621094 96.46875 182.285156 96.496094 181.949219 96.542969 L 181.941406 96.53125 C 180.148438 96.714844 173.496094 97.542969 165.628906 100.816406 C 171.289062 93.023438 178.683594 87.566406 187.777344 84.527344 C 198.238281 81.050781 207.789062 81.859375 211.527344 82.398438 M 216.929688 80.207031 L 216.890625 80.015625 L 216.808594 79.859375 L 216.71875 79.578125 L 216.539062 79.359375 C 216.363281 79.058594 216.117188 78.75 215.808594 78.460938 C 215.699219 78.359375 215.601562 78.277344 215.492188 78.199219 C 215.308594 78.050781 215.066406 77.886719 214.808594 77.75 C 214.699219 77.6875 214.589844 77.632812 214.472656 77.605469 L 214.28125 77.523438 C 213.964844 77.394531 213.636719 77.3125 213.308594 77.296875 L 213.28125 77.285156 C 211.679688 77.011719 206.023438 76.210938 198.636719 76.921875 C 198.738281 76.832031 198.835938 76.742188 198.929688 76.652344 C 203.648438 74.566406 208.414062 71.65625 213.019531 67.617188 C 214.945312 66.84375 216.917969 66.226562 218.945312 65.734375 C 226.507812 69.820312 235 73.847656 244.015625 77.46875 C 235.035156 87.183594 224.484375 92.765625 212.519531 94.121094 C 214.117188 90.828125 215.574219 87.226562 216.835938 83.261719 C 216.875 83.152344 216.929688 83.054688 216.957031 82.953125 C 217.082031 82.5625 217.15625 82.117188 217.164062 81.660156 L 217.164062 81.34375 C 217.128906 80.960938 217.054688 80.578125 216.929688 80.207031 M 142.300781 165.566406 C 142.257812 165.480469 142.210938 165.375 142.15625 165.292969 C 141.976562 164.9375 141.71875 164.589844 141.394531 164.273438 L 141.175781 164.066406 C 140.871094 163.828125 140.566406 163.644531 140.226562 163.472656 L 140.074219 163.371094 L 139.898438 163.328125 L 139.65625 163.210938 L 139.371094 163.183594 C 139.046875 163.101562 138.683594 163.074219 138.253906 163.089844 C 138.117188 163.101562 137.992188 163.117188 137.863281 163.136719 C 137.636719 163.183594 137.355469 163.238281 137.097656 163.328125 C 136.972656 163.355469 136.871094 163.398438 136.761719 163.453125 L 136.582031 163.539062 C 136.289062 163.671875 136.015625 163.855469 135.773438 164.074219 L 135.753906 164.082031 C 134.898438 164.71875 132.652344 166.480469 129.914062 169.304688 C 129.722656 168.417969 129.523438 167.527344 129.296875 166.628906 C 131.140625 158.433594 135.078125 151.3125 141.136719 145.363281 C 148.730469 137.898438 157.363281 134.550781 160.828125 133.421875 C 163.382812 151.992188 159.066406 167.191406 148.03125 178.589844 C 148.011719 178.597656 148.003906 178.605469 147.996094 178.625 C 146.640625 174.460938 144.777344 170.105469 142.300781 165.566406 M 123.839844 186.746094 C 128.367188 177.125 135.296875 170.976562 138.152344 168.710938 C 147.003906 185.246094 148.230469 201 141.828125 215.507812 C 141.738281 215.726562 141.628906 215.933594 141.539062 216.152344 C 134.679688 214.371094 127.75 212.449219 119.972656 209.722656 C 119.109375 201.78125 120.390625 194.105469 123.839844 186.746094 M 121.203125 151.777344 C 123.738281 145.636719 125.339844 138.371094 125.128906 129.910156 C 125.148438 129.886719 125.175781 129.859375 125.203125 129.828125 C 133.226562 121.453125 142.546875 117.535156 146.292969 116.1875 C 147.351562 122.554688 147.648438 128.566406 147.203125 134.222656 C 139.890625 138.75 131.378906 146.238281 126.628906 158.015625 C 126.257812 157.003906 125.875 155.988281 125.449219 154.960938 C 125.402344 154.851562 125.382812 154.742188 125.320312 154.632812 C 125.164062 154.222656 124.921875 153.820312 124.613281 153.449219 L 124.402344 153.1875 C 124.121094 152.902344 123.8125 152.648438 123.457031 152.441406 L 123.292969 152.304688 L 123.121094 152.230469 L 122.855469 152.066406 L 122.554688 152.015625 C 122.21875 151.894531 121.820312 151.804688 121.355469 151.785156 C 121.300781 151.777344 121.253906 151.785156 121.203125 151.777344 M 114.6875 207.792969 C 109.75 205.921875 104.457031 203.699219 98.617188 200.992188 C 102.546875 193.640625 105.4375 184.238281 104.710938 172.859375 C 110.515625 164.675781 117.527344 159.753906 120.566406 157.859375 C 122.882812 163.671875 124.421875 169.320312 125.210938 174.785156 C 119.507812 182.300781 113.871094 193.488281 114.6875 207.792969 M 147.714844 217.734375 L 146.976562 217.542969 C 146.820312 217.507812 146.667969 217.472656 146.511719 217.425781 C 150.332031 208.738281 152.558594 197.542969 149.535156 184.183594 C 157.738281 176.605469 165.585938 164.808594 166.566406 147.101562 C 173.160156 141.535156 179.328125 133.675781 183.148438 122.609375 C 192.371094 118.832031 202.101562 111.9375 209.5625 99.550781 C 221.621094 98.988281 236.21875 94.386719 249.242188 79.503906 C 257.046875 82.433594 265.160156 85.019531 273.308594 87.035156 C 276.976562 89.484375 280.714844 90.710938 284.535156 90.710938 C 288.835938 90.710938 292.925781 88.59375 296.765625 85.082031 C 302.453125 83.445312 308.070312 81.550781 313.546875 79.503906 C 326.582031 94.386719 341.171875 98.988281 353.230469 99.550781 C 360.695312 111.9375 370.417969 118.832031 379.652344 122.609375 C 383.472656 133.675781 389.628906 141.535156 396.234375 147.101562 C 397.214844 164.808594 405.0625 176.605469 413.265625 184.183594 C 410.238281 197.542969 412.457031 208.738281 416.277344 217.425781 C 416.121094 217.472656 415.96875 217.507812 415.8125 217.542969 L 415.085938 217.734375 C 413.867188 218.042969 412.988281 219.089844 412.886719 220.335938 C 412.847656 220.699219 412.894531 221.054688 412.996094 221.390625 C 412.964844 221.601562 412.949219 221.800781 412.949219 222.027344 C 412.949219 232.816406 411.730469 243.539062 409.335938 253.988281 C 409.320312 254.042969 409.292969 254.097656 409.273438 254.152344 C 406.847656 263.402344 402.445312 276.644531 398.085938 285.367188 C 397.613281 286.324219 397.695312 287.460938 398.296875 288.339844 C 398.714844 288.941406 399.125 289.542969 399.550781 290.140625 C 385.589844 299.308594 379.1875 310.761719 376.503906 321.097656 C 361.261719 326.4375 352.15625 335.125 346.753906 344.019531 C 338.378906 344.347656 331.320312 346.011719 325.371094 348.503906 C 318.757812 329.511719 308.28125 292.582031 302.277344 236.351562 C 302.277344 236.351562 296.75 186.601562 298.132812 174.933594 L 298.09375 174.933594 C 298.101562 173.214844 298.03125 165.929688 296.003906 165.929688 L 294.882812 165.929688 C 312.945312 159.925781 313.464844 143.453125 313.472656 143.253906 L 313.519531 140.714844 L 283.433594 140.714844 C 283.664062 140.628906 299.9375 134.265625 283.421875 102.988281 C 266.917969 134.265625 283.183594 140.628906 283.414062 140.714844 L 253.328125 140.714844 L 253.371094 143.253906 C 253.371094 143.453125 253.902344 159.925781 271.964844 165.929688 L 270.851562 165.929688 C 268.816406 165.929688 268.734375 174.933594 268.734375 174.933594 C 268.742188 175.050781 268.761719 175.167969 268.761719 175.289062 L 268.761719 175.296875 L 268.769531 175.296875 C 270 187.585938 264.566406 236.351562 264.566406 236.351562 C 258.394531 294.226562 247.480469 331.660156 240.921875 350.121094 C 234.300781 346.75 226.125 344.410156 216.046875 344.019531 C 210.632812 335.113281 201.53125 326.4375 186.296875 321.097656 C 183.613281 310.761719 177.210938 299.308594 163.257812 290.140625 C 163.675781 289.542969 164.085938 288.941406 164.503906 288.339844 C 165.105469 287.460938 165.1875 286.324219 164.703125 285.367188 C 160.347656 276.644531 155.945312 263.402344 153.515625 254.152344 C 153.507812 254.097656 153.480469 254.042969 153.460938 253.988281 C 151.0625 243.539062 149.839844 232.816406 149.839844 222.027344 C 149.839844 221.800781 149.824219 221.601562 149.796875 221.390625 C 149.898438 221.054688 149.941406 220.699219 149.914062 220.335938 C 149.816406 219.089844 148.921875 218.042969 147.714844 217.734375 M 135.25 351.898438 C 135.878906 351.949219 136.503906 352.011719 137.117188 352.085938 C 137.488281 352.125 137.859375 352.167969 138.222656 352.214844 C 141.921875 352.675781 145.40625 353.402344 148.679688 354.375 C 150.828125 355.015625 152.886719 355.757812 154.851562 356.617188 C 155 357.089844 155.152344 357.570312 155.316406 358.054688 C 156.816406 362.472656 159.066406 367.128906 162.394531 371.550781 C 166.8125 377.417969 173.152344 382.867188 182.210938 386.75 C 182.257812 386.816406 182.285156 386.890625 182.328125 386.960938 C 182.402344 387.085938 182.472656 387.207031 182.535156 387.332031 C 182.574219 387.414062 182.613281 387.496094 182.648438 387.578125 C 182.722656 387.753906 182.789062 387.933594 182.839844 388.113281 C 182.855469 388.160156 182.867188 388.207031 182.878906 388.253906 C 182.929688 388.445312 182.960938 388.640625 182.988281 388.832031 C 182.992188 388.886719 183 388.9375 183.003906 388.992188 C 183.027344 389.230469 183.023438 389.46875 183.011719 389.707031 C 178.902344 390.984375 175.535156 392.113281 172.917969 393.03125 C 172.90625 393.039062 172.898438 393.046875 172.890625 393.058594 C 172.890625 393.058594 172.878906 393.050781 172.875 393.046875 L 172.867188 393.050781 L 172.710938 392.894531 C 172.699219 392.878906 172.683594 392.867188 172.667969 392.851562 C 167.617188 385.191406 159.371094 376.78125 146.304688 372.378906 C 146.265625 372.363281 146.230469 372.351562 146.191406 372.335938 C 146.113281 372.3125 146.027344 372.289062 145.953125 372.265625 C 145.148438 372 144.332031 371.746094 143.492188 371.515625 L 143.492188 371.511719 C 142.695312 371.296875 141.886719 371.085938 141.0625 370.894531 C 138.824219 366.820312 137.441406 362.820312 136.578125 359.445312 L 136.578125 359.4375 C 135.734375 356.160156 135.386719 353.476562 135.25 351.898438 M 188.605469 372.332031 L 188.605469 372.359375 C 188.816406 373.851562 189.679688 379.0625 192.363281 385.375 C 191.351562 385.066406 190.179688 384.601562 188.816406 383.964844 C 187.433594 383.511719 186.085938 383.007812 184.785156 382.464844 C 182.402344 381.484375 180.164062 380.363281 178.082031 379.097656 C 172.589844 375.789062 168.140625 371.542969 164.746094 366.355469 C 163.503906 364.457031 162.402344 362.417969 161.4375 360.261719 C 161.410156 360.191406 161.375 360.125 161.347656 360.054688 C 160.765625 358.726562 160.265625 357.40625 159.835938 356.117188 C 159.492188 355.089844 159.191406 354.078125 158.9375 353.085938 C 157.238281 346.574219 157.21875 341.027344 157.335938 338.425781 C 157.738281 338.515625 158.144531 338.605469 158.535156 338.710938 C 159.726562 339 160.882812 339.308594 162.019531 339.644531 C 162.964844 339.917969 163.882812 340.210938 164.792969 340.527344 C 169.761719 342.21875 174.207031 344.390625 178.128906 347.046875 C 178.546875 348.230469 179.019531 349.421875 179.566406 350.621094 C 182.175781 356.480469 186.230469 362.417969 192.472656 367.503906 C 192.125 367.511719 191.761719 367.578125 191.386719 367.683594 L 191.109375 367.777344 C 190.777344 367.914062 190.46875 368.078125 190.179688 368.292969 L 190.015625 368.375 L 189.898438 368.503906 L 189.667969 368.660156 L 189.523438 368.886719 C 189.304688 369.113281 189.105469 369.421875 188.933594 369.785156 C 188.878906 369.90625 188.832031 370.011719 188.785156 370.140625 C 188.714844 370.351562 188.644531 370.613281 188.585938 370.878906 C 188.558594 370.988281 188.550781 371.09375 188.542969 371.207031 L 188.53125 371.40625 C 188.515625 371.722656 188.542969 372.03125 188.605469 372.332031 M 193.644531 372.488281 C 194.617188 372.496094 195.582031 372.53125 196.527344 372.578125 C 197.894531 372.640625 199.230469 372.75 200.539062 372.886719 C 200.9375 372.933594 201.328125 372.980469 201.722656 373.023438 C 209.042969 373.941406 215.554688 376.007812 221.222656 379.207031 L 221.230469 379.207031 C 221.6875 379.464844 222.128906 379.726562 222.574219 380 C 216.109375 381.144531 209.726562 382.476562 203.441406 383.992188 C 201.53125 384.449219 199.636719 384.921875 197.753906 385.421875 C 197.628906 385.164062 197.511719 384.914062 197.402344 384.65625 L 197.402344 384.648438 C 195.019531 379.382812 194.027344 374.78125 193.644531 372.488281 M 249.707031 373.96875 C 249.652344 374.289062 249.660156 374.652344 249.714844 375.050781 C 249.734375 375.179688 249.761719 375.304688 249.796875 375.433594 C 249.855469 375.644531 249.933594 375.90625 250.042969 376.152344 C 250.054688 376.1875 250.070312 376.214844 250.078125 376.246094 C 243.632812 376.851562 237.238281 377.652344 230.917969 378.617188 C 228.34375 376.953125 225.980469 374.996094 223.824219 372.761719 C 222.722656 371.632812 221.6875 370.421875 220.691406 369.148438 C 220.628906 369.058594 220.558594 368.976562 220.492188 368.886719 L 220.492188 368.875 C 214.371094 360.828125 212.191406 352.332031 211.496094 348.921875 C 212.070312 348.914062 212.636719 348.902344 213.199219 348.914062 C 215.109375 348.921875 216.964844 348.996094 218.773438 349.148438 C 226.433594 349.765625 233.253906 351.640625 239.210938 354.761719 C 243.304688 356.898438 246.996094 359.625 250.261719 362.9375 C 251.328125 364 252.347656 365.140625 253.316406 366.335938 C 253.972656 367.148438 254.589844 367.964844 255.164062 368.777344 C 254.035156 369.457031 252.898438 370.1875 251.753906 370.949219 C 251.671875 371.003906 251.570312 371.050781 251.488281 371.113281 C 251.171875 371.324219 250.863281 371.597656 250.589844 371.933594 L 250.40625 372.179688 C 250.199219 372.460938 250.042969 372.777344 249.917969 373.125 L 249.824219 373.277344 L 249.796875 373.453125 L 249.699219 373.707031 Z M 374.25 371.207031 C 374.25 371.09375 374.238281 370.988281 374.210938 370.878906 C 374.160156 370.613281 374.085938 370.351562 374.003906 370.140625 C 373.964844 370.011719 373.921875 369.90625 373.867188 369.785156 C 373.683594 369.421875 373.484375 369.113281 373.265625 368.886719 L 373.128906 368.660156 L 372.902344 368.503906 L 372.785156 368.375 L 372.621094 368.292969 C 372.332031 368.078125 372.011719 367.914062 371.691406 367.777344 L 371.402344 367.683594 C 371.039062 367.578125 370.671875 367.511719 370.328125 367.503906 C 376.558594 362.417969 380.617188 356.488281 383.226562 350.628906 C 383.773438 349.429688 384.242188 348.238281 384.671875 347.046875 C 388.582031 344.390625 393.03125 342.21875 398.003906 340.515625 C 398.90625 340.210938 399.835938 339.917969 400.78125 339.644531 C 401.917969 339.308594 403.070312 339 404.261719 338.710938 C 404.65625 338.605469 405.0625 338.515625 405.464844 338.425781 C 405.582031 341.027344 405.554688 346.585938 403.84375 353.097656 C 403.589844 354.085938 403.296875 355.089844 402.953125 356.117188 C 402.527344 357.40625 402.027344 358.734375 401.445312 360.0625 C 401.40625 360.125 401.378906 360.199219 401.351562 360.261719 C 400.386719 362.417969 399.289062 364.457031 398.042969 366.355469 C 394.648438 371.53125 390.210938 375.78125 384.726562 379.089844 C 382.632812 380.355469 380.40625 381.484375 378.023438 382.464844 L 378.015625 382.464844 C 376.714844 383.007812 375.378906 383.511719 373.984375 383.964844 C 372.621094 384.601562 371.449219 385.066406 370.4375 385.375 C 373.113281 379.0625 373.984375 373.851562 374.195312 372.359375 L 374.195312 372.332031 C 374.257812 372.03125 374.277344 371.722656 374.265625 371.40625 Z M 440.507812 375.914062 C 439.972656 377.796875 439.097656 380.417969 437.722656 383.367188 C 436.160156 386.738281 433.957031 390.558594 430.875 394.214844 C 427.582031 398.117188 423.808594 401.265625 419.550781 403.675781 C 413.257812 400.644531 406.71875 397.84375 399.988281 395.28125 L 399.980469 395.28125 C 398.515625 394.707031 397.035156 394.152344 395.550781 393.617188 C 396.222656 392.6875 396.949219 391.757812 397.730469 390.832031 C 397.953125 390.570312 398.179688 390.3125 398.40625 390.050781 C 403.671875 384.09375 410.074219 379.808594 417.542969 377.21875 C 418.003906 377.050781 418.480469 376.898438 418.953125 376.753906 C 420.851562 376.152344 422.824219 375.660156 424.863281 375.28125 C 426.335938 375.007812 427.839844 374.78125 429.382812 374.625 C 433.03125 374.226562 436.878906 374.152344 440.90625 374.386719 C 440.808594 374.816406 440.671875 375.332031 440.507812 375.914062 M 568.359375 432.707031 L 560.265625 429.988281 C 527.867188 419.117188 472.25 407.640625 425.863281 405.484375 C 436.722656 397.789062 441.992188 386.839844 444.335938 380.15625 C 460.117188 371.386719 467.246094 358.644531 470.328125 347.359375 C 470.550781 347.414062 470.765625 347.429688 470.976562 347.429688 C 472.039062 347.429688 473.070312 346.847656 473.578125 345.847656 C 479.425781 334.570312 487.128906 317.539062 491.160156 304.929688 C 491.414062 304.140625 491.3125 303.285156 490.894531 302.566406 C 498.371094 290.78125 499.574219 279.308594 498.289062 269.742188 C 498.945312 269.277344 499.390625 268.558594 499.5 267.730469 C 500.417969 260.429688 501 253.007812 501.21875 245.703125 C 501.300781 243.320312 501.335938 240.882812 501.335938 238.445312 C 501.335938 237.882812 501.335938 237.316406 501.328125 236.742188 C 501.390625 236.507812 501.425781 236.253906 501.417969 236 C 501.117188 220.070312 499.199219 204.191406 495.714844 188.777344 C 495.585938 188.238281 495.308594 187.765625 494.933594 187.382812 C 494.386719 169.128906 483.683594 156.742188 476.742188 150.578125 C 475.734375 126.410156 458.261719 113.375 450.578125 108.800781 C 445.027344 92.195312 433.113281 83.597656 423.253906 79.195312 C 416.742188 70.511719 408.894531 65.171875 401.199219 61.925781 C 392.792969 49.789062 382.878906 43.480469 373.375 40.460938 C 373.339844 40.433594 373.300781 40.394531 373.265625 40.371094 C 362.507812 32.390625 336.339844 24.605469 319.230469 22.570312 C 310.363281 18.3125 293.863281 17.058594 283.796875 17.058594 C 276.539062 17.058594 261.195312 17.632812 250.84375 22.058594 C 235.046875 22.125 201.984375 31.144531 189.523438 40.371094 C 189.488281 40.394531 189.460938 40.433594 189.421875 40.460938 C 179.910156 43.480469 169.996094 49.789062 161.59375 61.925781 C 153.910156 65.171875 146.050781 70.511719 139.535156 79.195312 C 129.675781 83.597656 117.773438 92.195312 112.214844 108.800781 C 104.539062 113.375 87.058594 126.410156 86.058594 150.578125 C 79.109375 156.742188 68.414062 169.128906 67.855469 187.382812 C 67.484375 187.765625 67.203125 188.238281 67.085938 188.777344 C 63.589844 204.183594 61.671875 220.070312 61.371094 236 C 61.363281 236.253906 61.410156 236.507812 61.464844 236.742188 L 61.464844 238.445312 C 61.464844 240.890625 61.5 243.328125 61.574219 245.695312 C 61.789062 253.007812 62.375 260.417969 63.300781 267.730469 C 63.402344 268.558594 63.855469 269.277344 64.5 269.742188 C 63.21875 279.308594 64.417969 290.78125 71.90625 302.566406 C 71.488281 303.285156 71.386719 304.140625 71.632812 304.929688 C 75.671875 317.539062 83.363281 334.570312 89.210938 345.847656 C 89.730469 346.847656 90.75 347.429688 91.824219 347.429688 C 92.03125 347.429688 92.25 347.402344 92.46875 347.347656 C 95.550781 358.632812 102.683594 371.378906 118.453125 380.15625 C 120.828125 386.902344 126.167969 397.980469 137.226562 405.683594 C 91.632812 408.257812 38.125 419.410156 6.59375 429.988281 L -1.503906 432.707031 L 35.359375 445.632812 L 24.292969 477.210938 L 30.085938 475.117188 C 59.460938 464.511719 117.027344 453.152344 155.882812 453.152344 C 185.785156 453.152344 215.300781 456.828125 241.222656 463.757812 L 251.78125 466.585938 L 228.085938 442.902344 C 245.042969 437.871094 263.761719 435.070312 283.433594 435.070312 C 303.097656 435.070312 321.816406 437.871094 338.769531 442.902344 L 315.074219 466.585938 L 325.636719 463.757812 C 351.546875 456.828125 381.058594 453.152344 410.976562 453.152344 C 449.828125 453.152344 507.386719 464.511719 536.773438 475.117188 L 542.566406 477.210938 L 531.496094 445.632812 Z M 568.359375 432.707031 " fill="rgb(13.725281%, 12.156677%, 12.548828%)" fill-opacity="1" fill-rule="nonzero"/>
</g>
<path d="M 149.742188 402.511719 C 150.296875 402.246094 150.851562 401.992188 151.40625 401.746094 C 151.632812 401.636719 151.851562 401.527344 152.078125 401.429688 C 151.296875 401.78125 150.515625 402.148438 149.742188 402.511719 " fill="rgb(13.725281%, 12.156677%, 12.548828%)" fill-opacity="1" fill-rule="nonzero"/>
<path d="M 189.503906 409.304688 L 196.21875 426.367188 L 200.082031 424.839844 L 193.382812 407.777344 Z M 189.503906 409.304688 " fill="rgb(13.725281%, 12.156677%, 12.548828%)" fill-opacity="1" fill-rule="nonzero"/>
<path d="M 214.636719 404.367188 L 213.679688 401.191406 L 211.054688 401.984375 L 210.03125 402.292969 L 211.570312 407.394531 C 211.679688 407.757812 211.789062 408.113281 211.898438 408.457031 C 212.589844 410.695312 213.289062 412.707031 214.117188 414.644531 L 214.042969 414.671875 C 212.636719 412.933594 210.960938 411.050781 209.34375 409.523438 L 203.785156 404.175781 L 199.148438 405.578125 L 204.429688 423.128906 L 208.078125 422.027344 L 206.496094 416.773438 C 205.632812 413.90625 204.824219 411.414062 203.996094 409.140625 L 204.105469 409.105469 C 205.550781 410.914062 207.394531 412.804688 209.015625 414.386719 L 214.828125 420 L 218.964844 418.753906 L 216.609375 410.933594 Z M 214.636719 404.367188 " fill="rgb(13.725281%, 12.156677%, 12.548828%)" fill-opacity="1" fill-rule="nonzero"/>
<path d="M 228.652344 405.640625 C 228.488281 405.613281 228.324219 405.585938 228.160156 405.558594 C 227.824219 405.511719 227.503906 405.457031 227.214844 405.402344 C 225.367188 405.085938 224.496094 404.710938 224.296875 403.746094 C 224.214844 403.382812 224.277344 402.992188 224.503906 402.636719 C 224.621094 402.445312 224.785156 402.273438 225.003906 402.101562 C 225.367188 401.828125 225.867188 401.601562 226.523438 401.464844 C 228.113281 401.121094 229.40625 401.292969 230.226562 401.457031 C 230.308594 401.472656 230.390625 401.484375 230.460938 401.5 L 230.636719 398.042969 C 230.179688 397.945312 229.671875 397.871094 229.082031 397.855469 L 229.070312 397.855469 C 228.179688 397.808594 227.125 397.878906 225.867188 398.15625 C 224.53125 398.4375 223.414062 398.925781 222.53125 399.554688 C 222.476562 399.589844 222.429688 399.628906 222.378906 399.664062 C 220.574219 401.011719 219.8125 402.957031 220.25 404.984375 C 220.519531 406.277344 221.210938 407.203125 222.230469 407.875 L 222.238281 407.875 C 223.292969 408.585938 224.714844 409.003906 226.371094 409.234375 C 228.652344 409.515625 229.652344 409.996094 229.878906 411.085938 C 230.132812 412.261719 229.316406 413.242188 227.453125 413.644531 C 226.585938 413.832031 225.695312 413.878906 224.867188 413.824219 C 224.058594 413.789062 223.3125 413.660156 222.722656 413.496094 L 222.621094 417.027344 C 223.75 417.363281 225.886719 417.492188 227.941406 417.042969 C 229.726562 416.664062 231.078125 416.015625 232.0625 415.207031 C 233.480469 414.050781 234.109375 412.542969 234.0625 410.976562 C 234.0625 410.625 234.015625 410.269531 233.9375 409.90625 C 233.425781 407.511719 231.753906 406.1875 228.652344 405.640625 " fill="rgb(13.725281%, 12.156677%, 12.548828%)" fill-opacity="1" fill-rule="nonzero"/>
<path d="M 249.371094 397.917969 L 248.851562 394.480469 L 243.359375 395.308594 L 238.191406 396.089844 L 234.890625 396.589844 L 235.21875 398.726562 L 235.417969 400.027344 L 237.082031 399.773438 L 237.09375 399.773438 L 239.929688 399.34375 L 240.3125 399.289062 L 240.496094 400.519531 L 240.503906 400.535156 L 240.703125 401.863281 L 241.941406 410.050781 L 242.53125 413.972656 L 246.640625 413.351562 L 246.460938 412.132812 L 244.425781 398.664062 L 245.003906 398.570312 Z M 249.371094 397.917969 " fill="rgb(13.725281%, 12.156677%, 12.548828%)" fill-opacity="1" fill-rule="nonzero"/>
<path d="M 258.183594 402.320312 L 257.285156 393.625 L 253.144531 394.050781 L 255.039062 412.289062 L 259.175781 411.859375 L 258.3125 403.492188 Z M 258.183594 402.320312 " fill="rgb(13.725281%, 12.156677%, 12.548828%)" fill-opacity="1" fill-rule="nonzero"/>
<path d="M 275.800781 394.671875 L 275.683594 392.667969 L 275.664062 392.378906 L 274.835938 392.425781 L 270.871094 392.644531 L 261.566406 393.160156 L 261.765625 396.636719 L 266.707031 396.363281 L 266.925781 400.199219 L 267.035156 402.292969 L 267.304688 407.132812 L 267.386719 408.621094 L 267.535156 411.1875 L 271.074219 410.996094 L 271.691406 410.960938 L 271.535156 408.175781 L 271.074219 399.863281 L 270.988281 398.4375 L 270.863281 396.125 L 274.046875 395.953125 L 275.867188 395.851562 L 275.800781 394.679688 Z M 275.800781 394.671875 " fill="rgb(13.725281%, 12.156677%, 12.548828%)" fill-opacity="1" fill-rule="nonzero"/>
<path d="M 291.101562 394.261719 L 291.019531 398.980469 L 291.007812 399.582031 L 290.945312 403.046875 C 290.890625 406.257812 289.671875 407.757812 287.496094 407.722656 C 285.40625 407.6875 284.179688 406.066406 284.234375 402.9375 L 284.296875 399.253906 L 284.359375 395.234375 L 284.378906 394.226562 L 284.378906 393.925781 L 284.40625 392.332031 L 281.714844 392.285156 L 280.277344 392.257812 L 280.25 393.699219 L 280.195312 397.070312 L 280.1875 397.699219 L 280.15625 399.144531 L 280.15625 399.464844 L 280.105469 402.539062 C 280.039062 406.023438 280.96875 408.339844 282.707031 409.660156 C 283.878906 410.542969 285.414062 410.976562 287.28125 411.015625 C 290.664062 411.070312 293.109375 409.804688 294.285156 407.066406 L 294.292969 407.066406 C 294.765625 405.96875 295.039062 404.628906 295.074219 403.039062 C 295.082031 402.972656 295.082031 402.910156 295.082031 402.847656 L 295.128906 399.917969 L 295.238281 393.789062 L 295.257812 392.515625 L 291.128906 392.453125 Z M 291.101562 394.261719 " fill="rgb(13.725281%, 12.156677%, 12.548828%)" fill-opacity="1" fill-rule="nonzero"/>
<path d="M 299.859375 392.777344 L 299.859375 392.824219 L 299.550781 396.246094 L 304.476562 396.691406 L 303.996094 402.074219 L 303.886719 403.246094 L 303.152344 411.480469 L 307.300781 411.851562 L 308.625 397.0625 L 313.609375 397.507812 L 313.921875 394.042969 L 299.976562 392.789062 Z M 299.859375 392.777344 " fill="rgb(13.725281%, 12.156677%, 12.548828%)" fill-opacity="1" fill-rule="nonzero"/>
<path d="M 319.695312 394.832031 L 318.414062 394.632812 L 317.8125 398.546875 L 317.804688 398.5625 L 315.722656 412.097656 L 315.621094 412.753906 L 323.421875 413.953125 L 327.179688 414.535156 L 327.664062 411.378906 L 327.671875 411.378906 L 327.699219 411.167969 L 320.25 410.03125 L 320.25 410.023438 L 320.914062 405.730469 L 325.988281 406.503906 L 327.582031 406.75 L 327.828125 405.140625 L 328.089844 403.421875 L 321.425781 402.394531 L 322.007812 398.628906 L 326.507812 399.316406 L 329.046875 399.707031 L 329.347656 397.746094 L 329.5625 396.351562 L 324.878906 395.636719 Z M 319.695312 394.832031 " fill="rgb(13.725281%, 12.156677%, 12.548828%)" fill-opacity="1" fill-rule="nonzero"/>
<path d="M 353.148438 411.289062 C 352.285156 414.488281 350.089844 416.828125 347.261719 416.054688 C 345.324219 415.535156 344.34375 413.84375 344.253906 411.75 C 344.214844 410.886719 344.324219 409.949219 344.589844 408.996094 C 345.007812 407.421875 345.734375 406.085938 346.679688 405.191406 C 347.238281 404.65625 347.863281 404.285156 348.5625 404.121094 L 348.574219 404.113281 C 349.179688 403.957031 349.828125 403.964844 350.519531 404.148438 C 352.011719 404.558594 352.875 405.613281 353.246094 406.949219 C 353.628906 408.25 353.546875 409.8125 353.148438 411.289062 M 352.554688 401.355469 C 352.230469 401.226562 351.894531 401.121094 351.539062 401.019531 C 346.34375 399.609375 341.832031 402.4375 340.339844 407.921875 C 340.339844 407.933594 340.332031 407.949219 340.332031 407.957031 C 339.832031 409.832031 339.785156 411.613281 340.167969 413.195312 C 340.851562 416.082031 342.941406 418.300781 346.242188 419.191406 C 350.992188 420.480469 355.777344 418.308594 357.386719 412.378906 C 358.1875 409.433594 357.90625 406.621094 356.523438 404.476562 C 355.648438 403.109375 354.332031 402.027344 352.554688 401.355469 " fill="rgb(13.725281%, 12.156677%, 12.548828%)" fill-opacity="1" fill-rule="nonzero"/>
<path d="M 358.511719 422.527344 L 362.414062 423.984375 L 365 417.082031 L 371.164062 419.402344 L 372.339844 416.261719 L 366.171875 413.953125 L 367.65625 410.003906 L 374.25 412.476562 L 375.441406 409.296875 L 364.953125 405.355469 Z M 358.511719 422.527344 " fill="rgb(13.725281%, 12.156677%, 12.548828%)" fill-opacity="1" fill-rule="nonzero"/>
<path d="M 49.953125 434.21875 L 54.195312 451.265625 L 58.183594 450.488281 L 53.941406 433.445312 Z M 49.953125 434.21875 " fill="rgb(13.725281%, 12.156677%, 12.548828%)" fill-opacity="1" fill-rule="nonzero"/>
<path d="M 69.828125 430.429688 L 71.03125 435.394531 C 71.65625 437.976562 72.292969 440.269531 73.101562 442.472656 L 73.019531 442.488281 C 71.746094 440.714844 70.210938 438.777344 68.707031 437.179688 L 63.5625 431.601562 L 58.914062 432.46875 L 63.050781 449.542969 L 66.703125 448.859375 L 65.464844 443.742188 C 64.792969 440.957031 64.148438 438.535156 63.472656 436.304688 L 63.578125 436.285156 C 64.898438 438.128906 66.601562 440.089844 68.09375 441.742188 L 73.464844 447.59375 L 77.617188 446.820312 L 73.484375 429.746094 Z M 69.828125 430.429688 " fill="rgb(13.725281%, 12.156677%, 12.548828%)" fill-opacity="1" fill-rule="nonzero"/>
<path d="M 87.210938 442.144531 C 86.710938 442.230469 86.160156 442.300781 85.78125 442.316406 L 83.195312 431.125 C 83.546875 430.988281 84.105469 430.808594 84.96875 430.65625 C 88.425781 430.050781 90.980469 431.554688 91.796875 435.105469 C 92.742188 439.191406 90.832031 441.535156 87.210938 442.144531 M 91.539062 428.316406 C 89.554688 427.394531 87.242188 427.167969 83.863281 427.761719 C 81.898438 428.105469 79.992188 428.574219 78.582031 429.058594 L 82.457031 445.855469 C 83.480469 445.808594 84.976562 445.675781 87.070312 445.308594 C 90.472656 444.710938 93.164062 443.5 94.675781 441.675781 C 96.058594 439.980469 96.765625 437.507812 96.007812 434.234375 C 95.3125 431.214844 93.675781 429.3125 91.539062 428.316406 " fill="rgb(13.725281%, 12.156677%, 12.548828%)" fill-opacity="1" fill-rule="nonzero"/>
<path d="M 98.382812 425.398438 L 102.125 442.535156 L 106.140625 441.882812 L 102.398438 424.746094 Z M 98.382812 425.398438 " fill="rgb(13.725281%, 12.156677%, 12.548828%)" fill-opacity="1" fill-rule="nonzero"/>
<path d="M 114.289062 433.113281 L 114.652344 429.296875 C 114.730469 428.292969 114.769531 426.925781 114.820312 425.894531 L 114.902344 425.886719 C 115.351562 426.847656 115.910156 428.082031 116.421875 429.058594 L 118.195312 432.59375 Z M 111.835938 423.285156 L 109.648438 441.222656 L 113.824219 440.664062 L 114.253906 436.078125 L 119.351562 435.398438 L 121.558594 439.632812 L 125.917969 439.050781 L 117.117188 422.582031 Z M 111.835938 423.285156 " fill="rgb(13.725281%, 12.156677%, 12.548828%)" fill-opacity="1" fill-rule="nonzero"/>
<path d="M 138.59375 420.871094 L 139.160156 425.914062 C 139.457031 428.535156 139.800781 430.871094 140.324219 433.144531 L 140.242188 433.148438 C 139.195312 431.242188 137.914062 429.140625 136.613281 427.375 L 132.183594 421.230469 L 127.425781 421.5 L 129.378906 438.832031 L 133.117188 438.621094 L 132.53125 433.425781 C 132.214844 430.597656 131.886719 428.132812 131.496094 425.851562 L 131.601562 425.84375 C 132.683594 427.828125 134.136719 429.972656 135.414062 431.789062 L 140.039062 438.234375 L 144.285156 437.996094 L 142.335938 420.664062 Z M 138.59375 420.871094 " fill="rgb(13.725281%, 12.156677%, 12.548828%)" fill-opacity="1" fill-rule="nonzero"/>
<path d="M 423.515625 429.3125 C 421.171875 428.542969 420.15625 428.070312 420.210938 427.011719 C 420.253906 426.15625 421.171875 425.351562 422.984375 425.304688 C 424.792969 425.253906 426.085938 425.722656 426.8125 426.003906 L 427.875 422.882812 C 426.828125 422.460938 425.34375 422.125 423.199219 422.179688 C 418.867188 422.296875 416.089844 424.558594 415.941406 427.453125 C 415.8125 429.945312 417.765625 431.398438 420.808594 432.351562 C 422.96875 432.996094 423.8125 433.601562 423.761719 434.632812 C 423.703125 435.738281 422.648438 436.496094 420.730469 436.550781 C 418.945312 436.597656 417.21875 436.117188 416.148438 435.617188 L 415.132812 438.808594 C 416.148438 439.3125 418.207031 439.785156 420.320312 439.726562 C 425.421875 439.589844 427.878906 437.085938 428.027344 434.242188 C 428.152344 431.851562 426.722656 430.332031 423.515625 429.3125 " fill="rgb(13.725281%, 12.156677%, 12.548828%)" fill-opacity="1" fill-rule="nonzero"/>
<path d="M 430.429688 430.980469 C 429.839844 435.808594 432.664062 439.601562 439.023438 439.839844 C 441.261719 439.921875 443.03125 439.585938 443.832031 439.285156 L 443.574219 436.246094 C 442.71875 436.515625 441.296875 436.714844 440.039062 436.667969 C 436.332031 436.53125 434.410156 434.3125 434.824219 430.917969 C 435.285156 427.144531 438.101562 425.402344 441.375 425.523438 C 442.851562 425.578125 443.988281 425.925781 444.765625 426.28125 L 446.007812 423.296875 C 445.34375 422.894531 443.726562 422.453125 441.570312 422.375 C 436.003906 422.167969 431.136719 425.195312 430.429688 430.980469 " fill="rgb(13.725281%, 12.156677%, 12.548828%)" fill-opacity="1" fill-rule="nonzero"/>
<path d="M 446.160156 440.046875 L 450.300781 440.433594 L 453.390625 423.542969 L 449.253906 423.15625 Z M 446.160156 440.046875 " fill="rgb(13.725281%, 12.156677%, 12.548828%)" fill-opacity="1" fill-rule="nonzero"/>
<path d="M 467.792969 428.445312 L 468.457031 425.324219 L 457.292969 423.964844 L 453.707031 440.804688 L 465.273438 442.210938 L 465.9375 439.089844 L 458.488281 438.179688 L 459.339844 434.183594 L 466.011719 434.996094 L 466.671875 431.898438 L 460 431.085938 L 460.742188 427.589844 Z M 467.792969 428.445312 " fill="rgb(13.725281%, 12.156677%, 12.548828%)" fill-opacity="1" fill-rule="nonzero"/>
<path d="M 481.929688 432.078125 C 481.355469 434.621094 480.917969 436.902344 480.6875 439.15625 L 480.609375 439.144531 C 480.203125 437.140625 479.628906 434.90625 478.933594 432.988281 L 476.59375 426.332031 L 471.820312 425.695312 L 468.019531 442.503906 L 471.773438 443.003906 L 472.914062 437.964844 C 473.535156 435.222656 474.023438 432.820312 474.390625 430.585938 L 474.496094 430.597656 C 474.910156 432.683594 475.632812 434.988281 476.292969 436.953125 L 478.722656 443.929688 L 482.992188 444.5 L 486.789062 427.691406 L 483.035156 427.1875 Z M 481.929688 432.078125 " fill="rgb(13.725281%, 12.156677%, 12.548828%)" fill-opacity="1" fill-rule="nonzero"/>
<path d="M 496.179688 443.796875 C 492.574219 443.132812 491.046875 440.636719 491.984375 437.300781 C 493.027344 433.589844 496.046875 432.246094 499.230469 432.835938 C 500.660156 433.097656 501.71875 433.605469 502.417969 434.074219 L 504.101562 431.261719 C 503.515625 430.765625 502.003906 430.097656 499.910156 429.707031 C 494.503906 428.710938 489.277344 431.050781 487.683594 436.738281 C 486.347656 441.488281 488.515625 445.6875 494.691406 446.824219 C 496.863281 447.226562 498.640625 447.136719 499.472656 446.953125 L 499.699219 443.871094 C 498.820312 444.023438 497.398438 444.023438 496.179688 443.796875 " fill="rgb(13.725281%, 12.156677%, 12.548828%)" fill-opacity="1" fill-rule="nonzero"/>
<path d="M 517.300781 437.71875 L 518.484375 434.703125 L 507.839844 431.613281 L 501.46875 447.878906 L 512.496094 451.082031 L 513.675781 448.066406 L 506.574219 446.003906 L 508.085938 442.140625 L 514.445312 443.988281 L 515.617188 440.996094 L 509.257812 439.148438 L 510.582031 435.769531 Z M 517.300781 437.71875 " fill="rgb(13.725281%, 12.156677%, 12.548828%)" fill-opacity="1" fill-rule="nonzero"/>
<path d="M 179.21875 516.144531 L 179.21875 531.476562 C 178.015625 534.539062 175.191406 536.582031 172.003906 536.582031 C 167.859375 536.582031 164.492188 532.554688 164.492188 527.570312 C 170.800781 527.570312 175.96875 524.621094 175.96875 520.953125 C 175.914062 518.855469 173.269531 516.808594 169.601562 516.144531 Z M 31.410156 520.054688 C 31.410156 520.894531 30.867188 521.558594 30.203125 521.558594 C 29.542969 521.558594 29.003906 520.894531 29.003906 520.054688 L 29.003906 513.445312 C 29.003906 512.601562 29.542969 511.941406 30.203125 511.941406 C 30.867188 511.941406 31.410156 512.601562 31.410156 513.445312 Z M 31.410156 533.574219 C 31.464844 535.082031 30.625 536.28125 29.605469 536.28125 C 28.28125 536.28125 27.199219 535.082031 27.199219 533.574219 C 27.199219 532.074219 28.28125 530.875 29.605469 530.875 L 31.410156 530.875 Z M 153.492188 513.144531 L 149.953125 513.144531 C 149.894531 505.808594 142.800781 499.921875 134.027344 499.921875 C 128.378906 499.980469 123.8125 503.164062 123.8125 507.132812 C 123.8125 508.757812 124.652344 510.679688 126.210938 512.542969 L 135.230469 512.542969 C 133.90625 511.460938 133.183594 509.476562 133.183594 507.132812 C 133.125 504.308594 134.746094 502.027344 136.734375 502.027344 C 139.738281 502.027344 142.140625 507.011719 142.140625 513.144531 L 138.605469 513.144531 L 138.605469 513.140625 L 43.425781 513.140625 L 43.425781 516.148438 L 46.433594 516.148438 L 46.433594 528.46875 L 39.222656 528.46875 L 39.222656 516.75 C 39.222656 512.785156 35.191406 509.535156 30.203125 509.535156 C 25.214844 509.597656 21.1875 512.785156 21.1875 516.75 C 21.1875 520.71875 25.214844 523.960938 30.203125 523.960938 L 31.410156 523.960938 L 31.410156 528.46875 L 29.605469 528.46875 C 25.9375 528.46875 22.992188 530.753906 22.992188 533.574219 C 23.054688 537.066406 26.777344 539.886719 31.410156 539.886719 C 35.734375 539.886719 39.222656 537.066406 39.222656 533.574219 L 39.222656 530.875 L 46.433594 530.875 L 46.433594 540.183594 C 46.492188 541.511719 45.109375 542.59375 43.425781 542.59375 L 43.425781 544.398438 L 57.25 544.398438 L 57.25 542.59375 C 55.570312 542.59375 54.242188 541.511719 54.242188 540.183594 L 54.242188 516.148438 L 58.996094 516.148438 L 58.996094 516.144531 L 62.53125 516.144531 L 62.53125 540.1875 C 62.589844 541.511719 61.207031 542.59375 59.519531 542.59375 L 59.519531 544.398438 L 73.347656 544.398438 L 73.347656 542.59375 C 71.664062 542.59375 70.34375 541.511719 70.34375 540.1875 L 70.34375 516.144531 L 80.550781 516.144531 C 85.359375 516.144531 89.265625 520.175781 89.265625 525.164062 C 89.207031 529.671875 85.480469 533.277344 80.851562 533.277344 C 78.871094 533.277344 77.066406 532.976562 75.445312 532.375 L 74.84375 534.179688 C 76.460938 534.179688 78.929688 536.339844 82.65625 540.1875 C 85.238281 542.894531 88.066406 544.398438 90.46875 544.398438 C 93.957031 544.398438 97.320312 542.476562 99.484375 539.289062 L 98.285156 537.785156 C 97.199219 539.113281 95.515625 539.886719 93.773438 539.886719 C 91.789062 539.953125 89.265625 538.261719 86.863281 535.382812 C 93.65625 534.242188 98.644531 530.152344 98.644531 525.761719 C 98.582031 520.835938 93.472656 516.628906 86.863281 516.144531 L 126.042969 516.144531 L 126.042969 522.457031 C 123.996094 521.074219 120.875 520.355469 117.027344 520.355469 C 109.035156 520.355469 102.605469 525.882812 102.605469 532.679688 C 102.664062 536.945312 104.828125 541.210938 108.613281 544.398438 L 115.828125 540.792969 C 113.363281 538.804688 111.980469 535.140625 111.980469 530.875 C 111.980469 526.367188 115.046875 522.757812 118.828125 522.757812 C 121.597656 522.757812 124.179688 523.601562 126.042969 525.164062 L 126.042969 540.1875 C 126.105469 541.511719 124.722656 542.59375 123.035156 542.59375 L 123.035156 544.398438 L 136.863281 544.398438 L 136.863281 542.59375 C 135.179688 542.59375 133.855469 541.511719 133.855469 540.1875 L 133.855469 516.144531 L 142.140625 516.144531 L 142.140625 540.792969 C 142.199219 541.808594 140.820312 542.589844 139.132812 542.589844 L 139.132812 544.398438 L 152.957031 544.398438 L 152.957031 542.589844 C 151.277344 542.652344 149.953125 541.808594 149.953125 540.792969 L 149.953125 516.144531 L 160.285156 516.144531 C 163.769531 516.144531 166.59375 518.308594 166.59375 520.953125 C 166.59375 523.601562 163.769531 525.765625 160.285156 525.765625 C 157.996094 525.824219 156.257812 525.582031 155.175781 525.164062 C 155.113281 533.640625 161.066406 540.492188 168.398438 540.492188 C 173.203125 540.550781 177.292969 538.445312 179.21875 535.082031 L 179.21875 540.1875 C 179.21875 541.507812 177.773438 542.589844 175.96875 542.589844 L 175.96875 544.398438 L 190.035156 544.398438 L 190.035156 542.589844 C 188.351562 542.589844 187.03125 541.507812 187.03125 540.1875 L 187.03125 516.144531 L 191.777344 516.144531 L 191.777344 513.144531 Z M 153.492188 513.144531 " fill="rgb(13.725281%, 12.156677%, 12.548828%)" fill-opacity="1" fill-rule="nonzero"/>
<path d="M 218.75 512.542969 C 218.269531 512 218.507812 510.859375 218.507812 508.335938 C 218.507812 504.667969 221.453125 501.722656 225.058594 501.722656 C 232.089844 501.722656 238.34375 506.050781 240.683594 512.542969 L 248.5 512.542969 C 245.617188 504.605469 236.355469 499.320312 225.355469 499.320312 C 216.40625 499.320312 209.132812 503.347656 209.132812 508.335938 C 209.195312 509.660156 209.792969 511.160156 210.933594 512.542969 Z M 218.75 512.542969 " fill="rgb(13.725281%, 12.156677%, 12.548828%)" fill-opacity="1" fill-rule="nonzero"/>
<path d="M 329.539062 538.984375 C 328.21875 538.984375 327.5 535.496094 327.5 531.175781 C 327.5 526.546875 328.101562 522.757812 329.539062 522.757812 C 330.984375 522.820312 331.34375 526.546875 331.34375 531.175781 C 331.34375 535.496094 330.863281 538.984375 329.539062 538.984375 M 245.488281 534.78125 C 243.863281 536.339844 241.941406 537.1875 240.074219 537.1875 C 236.652344 537.121094 233.828125 533.941406 233.828125 529.972656 C 233.886719 526.007812 236.652344 522.757812 240.074219 522.757812 C 242 522.699219 243.988281 523.601562 245.488281 525.164062 Z M 317.171875 513.140625 L 206.1875 513.140625 L 206.1875 516.148438 L 210.933594 516.148438 L 210.933594 540.1875 C 210.996094 541.511719 209.617188 542.589844 207.929688 542.589844 L 207.929688 544.398438 L 221.753906 544.398438 L 221.753906 542.589844 C 220.070312 542.589844 218.75 541.511719 218.75 540.1875 L 218.75 516.148438 L 223.5 516.148438 L 223.5 516.144531 L 245.488281 516.144531 L 245.488281 522.757812 C 243.566406 520.472656 240.257812 519.152344 236.472656 519.152344 C 229.863281 519.214844 224.449219 524.023438 224.449219 529.972656 C 224.511719 535.921875 229.863281 540.792969 236.472656 540.792969 C 240.257812 540.792969 243.566406 539.46875 245.488281 537.1875 L 245.488281 540.1875 C 245.546875 541.511719 244.164062 542.59375 242.484375 542.59375 L 242.484375 544.398438 L 256.304688 544.398438 L 256.304688 542.59375 C 254.621094 542.59375 253.296875 541.511719 253.296875 540.1875 L 253.296875 516.144531 L 288.511719 516.144531 L 288.511719 520.957031 C 282.023438 520.957031 275.769531 518.550781 269.28125 518.550781 C 263.992188 518.550781 259.664062 521.496094 259.664062 525.164062 C 259.664062 528.46875 263.152344 531.175781 267.476562 531.175781 L 272.582031 531.175781 C 275.046875 531.175781 277.089844 532.914062 277.089844 535.082031 C 277.035156 537.902344 273.847656 540.1875 269.878906 540.1875 C 265.613281 540.1875 262.007812 539.34375 259.664062 537.785156 L 258.457031 539.886719 C 261.644531 541.035156 264.414062 543.015625 266.570312 545.597656 C 268.800781 548.242188 271.984375 549.804688 275.289062 549.804688 C 277.8125 549.804688 280.21875 548.304688 281.601562 545.898438 L 280.398438 544.699219 C 279.136719 545.414062 278.472656 545.78125 278.050781 545.78125 C 276.429688 545.71875 274.628906 544.574219 273.1875 542.59375 L 276.492188 542.59375 C 282.023438 542.53125 286.46875 539.34375 286.46875 535.382812 C 286.46875 531.714844 283.34375 528.769531 279.496094 528.769531 L 272.285156 528.769531 C 270.480469 528.769531 269.035156 527.144531 269.035156 525.164062 C 269.035156 523.183594 270.902344 521.554688 273.1875 521.554688 C 278.351562 521.554688 283.28125 523.960938 288.511719 523.960938 L 288.511719 540.1875 C 288.574219 541.511719 287.191406 542.59375 285.507812 542.59375 L 285.507812 544.398438 L 299.328125 544.398438 L 299.328125 542.59375 C 297.648438 542.59375 296.324219 541.511719 296.324219 540.1875 L 296.324219 516.144531 L 304.605469 516.144531 L 304.605469 540.1875 C 304.664062 541.511719 303.28125 542.59375 301.597656 542.59375 L 301.597656 544.398438 L 315.425781 544.398438 L 315.425781 542.59375 C 313.742188 542.59375 312.421875 541.511719 312.421875 540.1875 L 312.421875 516.144531 L 315.960938 516.144531 L 315.960938 516.148438 L 345.769531 516.148438 L 345.769531 524.261719 C 341.320312 521.675781 335.734375 520.355469 329.539062 520.355469 C 323.234375 520.414062 318.117188 525.222656 318.117188 531.175781 C 318.117188 536.824219 323.234375 541.390625 329.539062 541.390625 C 335.734375 541.390625 340.722656 536.824219 340.722656 531.175781 C 340.722656 527.992188 339.097656 525.164062 336.453125 523.660156 C 340.960938 524.441406 344.144531 525.582031 345.769531 526.964844 L 345.769531 540.1875 C 345.828125 541.507812 344.445312 542.589844 342.765625 542.589844 L 342.765625 544.394531 L 356.585938 544.394531 L 356.585938 542.589844 C 354.902344 542.589844 353.582031 541.507812 353.582031 540.1875 L 353.582031 516.148438 L 358.328125 516.148438 L 358.328125 513.140625 Z M 317.171875 513.140625 " fill="rgb(13.725281%, 12.156677%, 12.548828%)" fill-opacity="1" fill-rule="nonzero"/>
<path d="M 408.84375 507.433594 C 410.828125 507.433594 412.453125 505.8125 412.453125 503.828125 C 412.453125 501.84375 410.828125 500.21875 408.84375 500.21875 C 406.859375 500.21875 405.238281 501.84375 405.238281 503.828125 C 405.238281 505.8125 406.859375 507.433594 408.84375 507.433594 " fill="rgb(13.725281%, 12.156677%, 12.548828%)" fill-opacity="1" fill-rule="nonzero"/>
<path d="M 436.1875 539.886719 C 434.386719 539.953125 431.984375 538.261719 429.582031 535.382812 C 436.375 534.117188 441.359375 529.96875 441.359375 525.464844 C 441.359375 520.71875 435.953125 516.628906 428.980469 516.148438 L 448.8125 516.148438 L 448.8125 513.140625 L 372.738281 513.140625 L 372.738281 516.144531 L 378.804688 516.144531 C 383.972656 516.144531 388.125 520.175781 388.125 525.164062 C 388.183594 529.492188 383.972656 532.976562 378.804688 532.976562 C 376.882812 533.035156 375.382812 532.800781 374.300781 532.375 L 373.699219 534.179688 C 375.921875 535.023438 378.324219 536.882812 380.609375 539.585938 C 383.195312 542.648438 386.140625 544.398438 388.722656 544.398438 C 392.027344 544.453125 395.457031 542.648438 398.042969 539.585938 L 396.539062 538.085938 C 395.632812 539.226562 393.832031 539.886719 391.726562 539.886719 C 390.347656 539.953125 388.125 538.261719 385.71875 535.382812 C 392.273438 535.082031 397.5 530.871094 397.5 525.761719 C 397.4375 520.835938 392.328125 516.628906 385.71875 516.144531 L 404.949219 516.144531 L 404.949219 529.066406 C 403.867188 530.089844 402.605469 530.632812 401.34375 530.632812 C 400.023438 530.632812 398.582031 530.210938 397.140625 529.371094 L 396.539062 531.773438 C 397.921875 532.617188 399.601562 533.035156 401.34375 533.035156 C 402.605469 532.976562 403.867188 532.679688 404.949219 532.074219 L 404.949219 540.1875 C 405.011719 541.511719 403.628906 542.59375 401.945312 542.59375 L 401.945312 544.398438 L 415.773438 544.398438 L 415.773438 542.59375 C 414.089844 542.59375 412.765625 541.511719 412.765625 540.1875 L 412.765625 516.144531 L 416.597656 516.144531 L 416.597656 516.148438 L 421.765625 516.148438 C 427.414062 516.207031 431.984375 519.933594 431.984375 524.5625 C 431.984375 529.191406 427.535156 532.976562 422.066406 532.976562 C 420.566406 533.035156 419.242188 532.796875 418.160156 532.375 L 417.558594 534.183594 C 419.78125 535.019531 422.1875 536.878906 424.472656 539.585938 C 427.054688 542.652344 430 544.398438 432.585938 544.398438 C 435.292969 544.457031 438.414062 542.652344 441 539.585938 L 439.796875 537.789062 C 438.65625 539.109375 437.335938 539.886719 436.1875 539.886719 " fill="rgb(13.725281%, 12.156677%, 12.548828%)" fill-opacity="1" fill-rule="nonzero"/>
<path d="M 445.027344 529.550781 C 443.761719 529.550781 442.5 529.191406 441.300781 528.46875 L 440.398438 530.570312 C 441.960938 531.476562 443.527344 531.953125 444.90625 531.953125 C 446.710938 531.953125 448.214844 531.597656 449.414062 530.875 L 448.8125 528.46875 C 447.609375 529.191406 446.289062 529.550781 445.027344 529.550781 " fill="rgb(13.725281%, 12.156677%, 12.548828%)" fill-opacity="1" fill-rule="nonzero"/>
<path d="M 516.878906 538.984375 C 515.558594 538.984375 514.839844 535.496094 514.839844 531.175781 C 514.839844 526.546875 515.441406 522.757812 516.878906 522.757812 C 518.324219 522.820312 518.683594 526.546875 518.683594 531.175781 C 518.683594 535.496094 518.203125 538.984375 516.878906 538.984375 M 459.621094 522.457031 L 459.621094 516.449219 C 459.683594 515.308594 461.066406 514.34375 462.804688 514.34375 C 464.371094 514.40625 465.632812 515.308594 465.632812 516.449219 L 465.632812 522.457031 C 465.632812 523.601562 464.371094 524.5625 462.804688 524.5625 C 461.066406 524.5 459.621094 523.601562 459.621094 522.457031 M 545.667969 516.148438 L 545.667969 513.140625 L 473.449219 513.140625 L 473.449219 516.148438 L 475.847656 516.148438 L 475.847656 532.074219 C 474.949219 535.082031 471.160156 537.1875 466.53125 537.1875 C 461.726562 537.1875 457.820312 534.242188 457.820312 530.570312 C 466.476562 530.570312 473.449219 525.464844 473.449219 519.152344 C 473.449219 515.183594 468.335938 511.941406 462.027344 511.941406 C 456.375 512 451.808594 515.183594 451.808594 519.152344 C 451.808594 523.480469 456.375 526.964844 462.027344 526.964844 C 460.703125 528.109375 458 528.769531 454.515625 528.769531 C 452.167969 528.769531 450.425781 528.46875 449.40625 527.867188 C 449.34375 535.5 455.296875 541.691406 462.625 541.691406 C 468.636719 541.632812 473.570312 539.644531 475.847656 536.28125 L 475.847656 540.1875 C 475.910156 541.511719 474.53125 542.589844 472.84375 542.589844 L 472.84375 544.398438 L 486.667969 544.398438 L 486.667969 542.589844 C 484.988281 542.589844 483.664062 541.511719 483.664062 540.1875 L 483.664062 516.148438 L 488.410156 516.148438 L 488.410156 516.144531 L 491.945312 516.144531 L 491.945312 540.1875 C 492.007812 541.511719 490.625 542.59375 488.9375 542.59375 L 488.9375 544.398438 L 502.765625 544.398438 L 502.765625 542.59375 C 501.082031 542.59375 499.761719 541.511719 499.761719 540.1875 L 499.761719 516.144531 L 503.300781 516.144531 L 503.300781 516.148438 L 533.109375 516.148438 L 533.109375 524.261719 C 528.660156 521.675781 523.074219 520.355469 516.878906 520.355469 C 510.574219 520.414062 505.457031 525.222656 505.457031 531.175781 C 505.457031 536.824219 510.574219 541.390625 516.878906 541.390625 C 523.074219 541.390625 528.0625 536.824219 528.0625 531.175781 C 528.0625 527.992188 526.4375 525.164062 523.796875 523.660156 C 528.300781 524.441406 531.484375 525.582031 533.109375 526.964844 L 533.109375 540.1875 C 533.167969 541.507812 531.785156 542.589844 530.105469 542.589844 L 530.105469 544.394531 L 543.925781 544.394531 L 543.925781 542.589844 C 542.242188 542.589844 540.921875 541.507812 540.921875 540.1875 L 540.921875 516.148438 Z M 545.667969 516.148438 " fill="rgb(13.725281%, 12.156677%, 12.548828%)" fill-opacity="1" fill-rule="nonzero"/>
</svg>